<svg xmlns="http://www.w3.org/2000/svg" viewBox="0 0 2000 2000"><path fill="#333349" d="M1150.327 715.441c.552-1.271.241-2.913 2.107-3.631.578-.222.59-1.919.878-3.004 1.869-.164 3.312.63 4.51 1.963.839.935 1.895 1.531 3.036.931 3.153-1.659 6.48-1.738 10.667-1.103-.835-1.106-1.181-1.693-1.648-2.159-1.557-1.553-1.285-3.139.733-3.817.529-.178 1.123-.181 1.69-.219 3.864-.258 7.729-.497 11.592-.767.32-.022.629-.221 1.23-.444-.291-.889-.574-1.754-.803-2.454.184-.326.217-.484.299-.516 4.507-1.756 8.679-4.436 13.751-4.617 2.144-.076 4.284-.584 6.401-1.018 3.01-.618 5.967-1.25 9.113-1.058 1.986.121 4.023-.589 6.273-.966-.088-2.391 1.469-2.95 3.431-3.369 3.31-.708 6.372-.31 9.711.383 6.415 1.33 12.762 3.412 19.454 3.165 4.06-.15 7.956.496 11.507 2.624.293.176.668.259.895.493.766.787 1.951 1.541 2.109 2.457.238 1.381-1.215 1.956-2.305 2.619-2.511 1.527-4.96 3.157-7.3 5.37.679.096 1.404.394 2.03.253 2.641-.597 5.362-.735 7.86-2.148 1.246-.705 3.094-.627 4.631-.486 6.448.594 12.869 1.51 19.324 1.979 3.858.281 7.745 0 11.537 1.106.941.274 2.031.041 3.027.041.519-2.338 2.498-3.749 4.918-2.627 4.05 1.878 8.104 1.464 12.291 1.417 4.59-.052 8.778 1.284 11.466 5.496.231.362.636.666 1.027.866 3.021 1.544 6.058 3.056 9.752 4.91-.65-1.708-1.061-2.787-1.703-4.471 1.392.181 2.367.151 3.23.448 3.329 1.144 6.578 1.509 10.019.225 1.381-.515 3.081-.23 4.635-.215 1.668.017 3.335.145 5.395.243-.632-1.057-1.011-1.689-1.374-2.296 1.624-2.421 3.792-2.696 6.349-2.406 4.741.538 9.502.937 14.265 1.236 7.843.492 15.499 2.031 23.108 3.88.33.08.663.199.958.364 4.746 2.66 9.901 2.372 15.03 1.984 5.251-.398 10.353.01 15.523 1.189 2.712.618 5.143 1.187 7.442 2.865 1.278.933 3.205 1.018 4.864 1.375.883.19 1.817.207 2.727.198 9.124-.096 18.239-.075 27.549 2.076-.061-1.072-.107-1.878-.167-2.944.741-.165 1.47-.443 2.209-.472 4.573-.183 9.085.251 13.61 1.005 4.48.747 9.053.915 13.554 1.56 3.489.5 6.917 1.408 10.394 2.013 2.576.449 5.2.617 7.777 1.06 6.08 1.045 12.004 2.704 17.594 5.322 4.746 2.223 9.872 2.549 14.896 3.398 4.909.83 9.374 2.61 13.601 5.668-.525.749-.938 1.338-1.306 1.862.643 1.575 1.27 3.111 2.018 4.943-2.694.848-5.06.878-7.333.18-4.781-1.469-9.52-3.082-14.243-4.73-3.371-1.177-5.831-.568-8.091 2.184-.549.669-1.176 1.274-1.921 2.073 3.852 1.842 7.216 4.454 11.553 5.031 1.847.246 3.418 1.156 4.245 3.137-2.189 2.975-5.401 2.314-8.128 1.804-2.021-.378-3.164.044-4.528 1.281-1.922 1.743-3.805 3.2-4.611 6.049-.956 3.379-3.613 4.174-7.138 3.152-1.308-.379-2.632-.889-3.964-.942-1.111-.044-2.362-.163-3.017 1.52-.849 2.182-1.666 2.194-3.522.663-.605-.5-1.201-1.012-1.534-1.293-1.977.655-3.67 1.216-5.642 1.87.529 1.913.876 4.164 1.821 6.127.421.874 2.017 1.549 3.135 1.641 2.235.184 3.915.839 5.017 2.918.401.756 1.404 1.169 1.955 1.877.756.971 2.033 2.198 1.871 3.097-.434 2.414 1.14 3.244 2.533 4.361.356.286.726.556 1.074.851 2.893 2.449 2.522 4.581-1.016 5.914-.192.072-.333.279-.763.656 1.138 1.409 2.295 2.842 3.741 4.634-1.412.637-2.476 1.116-3.899 1.758.407.992.789 2.011 1.238 3 .823 1.814 1.297 3.663.682 5.639-.563 1.809-1.482 2.153-3.049 1.03-1.012-.725-1.886-1.639-2.839-2.449-1.042-.885-2.054-1.818-3.167-2.607-2.799-1.985-5.353-4.166-7.498-6.909-1.598-2.043-3.517-3.962-5.64-5.438-3.374-2.346-5.93-5.371-8.084-8.73-1.253-1.954-2.07-4.223-2.816-6.441-.18-.534.55-1.593 1.128-2.116 1.241-1.124 2.656-2.055 4.189-3.208-2.542-2.744-.782-5.555-.718-8.271.012-.499.807-1.016 1.297-1.461 1.517-1.377 1.583-1.89.22-3.254-.719-.719-1.52-1.356-2.41-2.141-1.412.731-2.767 1.401-3.416 3.278-.623 1.804-1.791 2.101-3.578 1.354-2.048-.856-4.496-1.169-5.357-3.75-3.334.053-6.55-1.453-9.65.077-.466 1.731-1.032 3.331-1.303 4.98-.264 1.607.369 2.862 2.089 3.393 1.328.41 2.725.842 2.115 3.089-2.939.486-5.999 1.088-9.087 1.466-1.675.205-3.115-.518-4.726-1.242-3.011-1.353-6.123-2.563-9.967-1.21-3.334 1.173-7.315.919-10.965.662-3.248-.229-8.217-.299-11.364.794-1.312 2.904-2.599 5.753-3.885 8.603-.187.415-.438.817-.535 1.253-.389 1.761-.557 3.593-1.136 5.285-.579 1.694-1.552 3.254-2.454 5.077 1.76.216 3.299.421 4.842.589 1.482.162 2.59.796 3.116 2.268.621 1.737 1.806 2.441 3.692 2.272.843-.076 1.733.38 2.81.645.154-.838.283-1.538.408-2.216 5.488-.221 12.252 2.228 16.536 6.298-.479-2.422-.824-4.164-1.184-5.984 1.498-.467 2.21.412 3.001 1.224 2.196 2.255 3.656 5.311 6.924 6.412.099.033.182.139.253.227 2.577 3.163 5.284 6.232 7.682 9.524 1.636 2.246 3.168 4.373 5.926 5.411 1.525.574 3.057 1.506 3.002 3.841-.959.065-1.802.122-2.97.201.108 3.183 1.863 5.368 3.852 7.363 1.919 1.925 3.989 3.698 6.231 5.757-.931.566-1.774.847-2.274 1.425-1.592 1.841-2.997 1.992-4.38.032-1.707-2.419-3.189-4.998-4.769-7.507-1.979-3.144-3.904-6.323-5.954-9.419-1.511-2.281-3.049-4.571-4.828-6.639-1.829-2.125-3.965-3.986-6.049-6.043-1.347 1.622-.287 2.798.349 3.781 1.544 2.39 3.13 4.796 5.019 6.909 2.6 2.91 2.451 6.185 1.945 9.625-.379 2.577-.727 5.159-1.126 7.732-.208 1.342-.414 2.693-.764 4.001-.907 3.401-2.009 6.753-2.817 10.176-.938 3.973-2.367 5.844-5.741 6.31-1.265.175-2.67-.198-3.928-.587-1.045-.323-1.97-1.036-2.999-1.604-2.934 2.107-4.255 4.822-3.323 8.036.803 2.772-.078 4.626-1.929 6.397-3.721 3.561-3.468 4.541.953 7.637 5.912 4.138 10.43 9.491 12.853 16.408 1.072 3.059.727 3.643-2.377 4.745-1.711.607-3.382 1.326-5.1 1.911-1.045.356-2.145.556-3.442.881-1.784-4.408-3.464-8.563-5.394-13.332.877-3.106-.608-4.93-5.056-5.139-3.837-.18-5.015-1.316-5.126-4.94-.09-2.95-3.128-5.29-6.672-5.009-2.197.174-4.216.798-5.775 2.589-.934 1.073-1.865 2.398-3.865 2.119-.829-2.03-2.291-3.798-1.441-6.518.614-1.965-.802-2.777-4.475-2.959-.83 2.399-3.62 3.624-3.977 6.621-.096.805-1.83 1.512-2.914 2.066-.657.336-1.508.292-2.413.443.614 1.943 1.847 2.588 3.624 2.704 2.439.16 4.754.434 5.211 3.722.126.908 1.644 1.622 3.199 3.043.413-.903.57-1.493.91-1.945 1.512-2.013 2.113-2.275 4.254-1.344 1.913.831 3.794 1.49 5.922 1.327 1.282-.099 2.473.52 2.334 1.84-.075.712-1.245 1.78-2.01 1.862-2.425.262-3.99 1.354-5.022 3.537-.365.771-1.19 1.352-1.874 1.94-1.23 1.056-1.849 2.29-1.395 3.925.167.147.325.411.499.422 5.978.362 7.582 5.58 10.313 9.441 1.177 1.663 2.063 3.424 3.816 4.681 1.999 1.434 3.268 3.639 3.556 6.035.148 1.23-.844 2.596-1.405 4.132.248.047.726.114 1.192.229 2.008.497 2.877 1.595 2.877 3.624-.001 5.294-1.834 10.167-3.489 15.077-.29.861-.957 1.646-1.056 2.511-.755 6.575-4.936 10.863-9.446 15.15-2.15 2.043-4.588 3.181-7.118 4.382-1.405.667-2.786 1.141-3.874 2.565-1.256 1.645-3.059.867-4.625-.433-1.388 2.076-3.027 3.488-5.848 3.369-1.855-.079-3.782.688-5.607 1.29-.582.192-.991 1.039-1.368 1.654-.145.237.026.664.041 1.005.055 1.311.653 2.93-1.368 3.28-1.778.308-1.912-1.309-2.351-2.399-1.981-4.91-6.481-5.506-10.355-1.861-2.121 1.995-3.842 4.002-4.956 6.658-1.309 3.122-.81 5.506 1.513 8.084 4.412 4.897 8.699 9.906 13.025 14.88.447.514.969 1.051 1.179 1.671 1.916 5.66 4.757 11.183 3.776 17.39-.278 1.759-1.458 3.701-2.812 4.89-2.169 1.907-4.828 3.256-7.849 5.209-1.153 3.141-5.637 7.807-9.017 8.559-.38-2.31-.78-4.607-1.132-6.911-.35-2.295-.914-2.647-3.322-2.026-1.047-.873-2.085-1.701-3.076-2.581-.405-.36-.916-.783-1.03-1.26-.88-3.696-3.872-5.83-6.209-8.425-.532-.591-1.563-.829-2.411-1.012-.982-.212-2.015-.184-3.188-.272-.257-.985-.355-1.913-.755-2.685-.247-.475-1.005-1.034-1.442-.967-.474.073-1.096.779-1.202 1.301-.201.99-.125 2.047-.085 3.073.094 2.427-.197 4.745-1.21 7.011-1.242 2.779-1.357 5.737-.818 8.978 2.606.2 3.492 1.985 4.056 4.38.539 2.292 1.586 4.474 2.518 6.658.293.687.897 1.709 1.42 1.747 2.068.153 2.715 1.861 3.923 3.003 1.819 1.72 4.014 2.953 5.644 4.987 2.15 2.685 3.726 5.371 3.466 8.965-.202 2.783.619 5.416 1.817 7.93.539 1.131.989 2.305 1.469 3.464.47 1.136.141 2.159-.921 2.583-.849.339-2.085.571-2.809.196-2.195-1.136-4.224-2.594-6.321-3.922-2.277-1.442-4.313-3.06-4.49-6.059-.007-.113-.007-.259-.074-.33-3.567-3.823-2.471-9.383-5.035-13.552-2.079-3.382-4.285-6.69-6.576-9.932-.426-.603-1.519-.734-2.657-1.239-1.113-2.329-.922-5.117-.526-7.975.211-1.525.06-3.104.023-4.658-.016-.677-.372-1.411-.203-2.016 1.727-6.214.018-11.866-2.569-17.456-1.232-2.663-2.011-5.533-3.195-8.221-1.085-2.464-2.439-4.811-3.982-7.807-.025 3.247-1.57 4.395-4.084 4.879-1.117.215-2.064 1.309-3.02 1.957-1.81-.596-3.505-1.155-5.426-1.788-.045-.662-.287-1.474-.118-2.187.749-3.148.228-6.113-1.092-8.982-1.049-2.278-2.06-4.583-3.286-6.765-.504-.897-1.602-1.439-2.304-2.251-2.057-2.379-4.22-4.696-6.019-7.263-1.48-2.112-2.5-4.546-3.781-6.945-.539.121-1.068.083-1.355.328-2.301 1.968-5.22 2.516-7.968 2.692-3.786.242-7.007 1.548-10.274 3.553 1.565 4.029-1.06 6.213-4.054 7.81-2.417 1.289-3.955 3.133-5.673 5.162-2.523 2.979-4.161 6.927-8.144 8.543-.203.083-.474.237-.528.415-1.386 4.527-6.313 5.013-9.289 8.358.306 2.104.452 4.618 1.071 7.009.844 3.261.463 6.356-.656 9.397-.973 2.644-1.494 5.201-.454 7.979.534 1.427.545 2.964-1.348 3.69-.39.15-.945.546-.971.865-.325 4.022-4.225 5.302-6.169 8.081-1.767 2.527-3.559 2.475-5.58.145-.81-.934-1.527-2.008-2.042-3.131-2.558-5.581-5.062-11.188-7.525-16.811-.73-1.667-1.173-3.46-1.907-5.125-1.142-2.588-2.411-5.121-3.648-7.666-.397-.817-.984-1.558-1.277-2.406-2.369-6.834-5.928-13.248-6.42-20.739-.255-3.88-1.689-7.673-2.431-11.535-.259-1.348-.041-2.788-.552-4.202-.162.278-.498.582-.459.828.242 1.523.422 3.31-.944 4.095-1.72.989-3.782 1.455-5.754 1.887-.551.121-1.545-.51-1.919-1.073-1.419-2.132-3.222-3.749-5.389-5.105-.934-.585-1.488-1.778-2.462-3.007 1.446-.531 2.341-.859 3.271-1.201-6.601-3.191-11.9-7.768-16.052-14.407-2.991.257-6.322.247-9.524.882-6.382 1.267-12.689 1.17-19.02-.119-3.686-.751-7.357-1.581-11.058-2.249-1.788-.323-2.906-1.157-3.338-2.936-.133-.547-.43-1.056-.666-1.577-1.281-2.822-1.516-2.732-4.579-1.516-2.905 1.153-5.69 2.021-9.131.422-3.196-1.485-6.505-2.625-9.279-4.888-.35-.286-.737-.674-1.142-.722-2.834-.336-3.743-2.498-4.217-4.746-.53-2.51-2.139-4.241-3.617-6.103-1.26-1.586-3.151-1.855-4.955-1.857-2.708-.004-4.853 3.037-3.792 5.591 1.416 3.409 2.986 6.76 6.245 9.025 1.825 1.269 3.288 3.058 4.994 4.69.161-.132.492-.405 1.083-.891.228.768.419 1.413.625 2.111 3.547.617 4.812 3.902 3.285 9.224.55.4 1.157 1.22 1.785 1.236 3.059.077 6.156.194 9.177-.192 3.081-.394 4.043-3.443 5.678-5.564.616-.8.877-1.865 1.444-2.714.582-.871 1.339-1.624 2.501-2.998.867 5.164 2.991 8.827 5.637 12.284.975 1.274 1.99 1.863 3.441 1.572 2.231-.448 3.703.438 4.84 2.281.657 1.065 1.348 2.173 2.26 3.003 2.331 2.122 2.447 4.431.972 7.022-1.465 2.573-2.046 5.707-5.24 7.166-.668.305-.806 2.243-.813 3.431-.02 3.221.082 3.276-2.902 4.496-1.24.507-2.047 1.189-2.605 2.456-.37.838-1.222 1.706-2.066 2.049-3.349 1.36-3.38 1.285-4.639 3.63-4.53 1.679-8.752 3.245-12.807 4.748-.176.475-.306.682-.325.9-.373 4.276-1.242 5.393-5.414 6.618-1.415.415-2.89.633-4.345.905-1.925.36-3.753.802-4.94 2.629-.825 1.269-2.246 1.506-3.647 1.489-1.44-.017-2.583.397-3.714 1.38-.989.86-2.291 1.481-3.558 1.875-2.323.722-4.758.735-6.723 2.771-1.493 1.547-6.571 1.02-8.114-.379-.535-.485-1.096-1.448-.978-2.065.766-3.995-1.78-7.187-2.434-10.819-.197-1.096-.545-2.209-.492-3.298.17-3.535-.918-6.571-3.621-8.807-1.765-1.46-2.505-3.269-3.421-5.281-1.231-2.704-3.034-5.667-5.434-7.205-4.185-2.681-5.502-6.458-6.208-10.82-.798-4.935-3.053-8.964-7.081-11.989-.608-.456-1.261-1.101-1.478-1.789-1.268-4.025-3.972-7.155-6.299-10.531-1.223-1.774-2.188-3.726-3.4-5.509-.858-1.262-1.935-2.376-3.38-4.117-.572 1.198-.911 1.91-1.262 2.645-1.56-.815-2.645-1.382-4.278-2.236 1.172 2.962 2.072 5.535 3.193 8.008 2.395 5.283 4.934 10.5 7.352 15.773.799 1.742 1.597 3.237 3.311 4.477 3.952 2.859 4.827 7.577 6.061 11.94.584 2.064.915 4.274.901 6.414-.021 3.142 1.78 5.382 4.039 6.553 3.554 1.842 4.503 5.095 4.724 8.167.404 5.622 3.533 8.347 8.324 9.827 1.452.449 2.218 1.24 3.064 2.403 1.663 2.286 3.63 4.351 5.464 6.513.947 1.117 1.867 2.257 2.821 3.368.873 1.017 1.24 2.076.837 3.457-.503 1.724.141 3.093 1.67 4.083.664.43 1.251.99 1.835 1.532 1.643 1.522 3.484 1.776 5.312.543 1.354-.914 2.524-1.104 4.106-.527 1.626.594 3.271.547 4.486-1.286.465-.702 1.801-1.354 2.604-1.218 4.531.765 8.331-1.243 12.229-2.91.599-.256 1.067-.817 1.694-1.315.824.395 1.622.778 2.281 1.094.156.405.311.614.303.817-.109 2.729-.247 5.456-.367 8.185-.239 5.432-3.471 9.772-5.397 14.578-1.735 4.329-3.782 8.547-5.896 12.709-3.181 6.263-7.261 11.848-13.053 16.008-.463.333-.879.799-1.395.98-4.677 1.644-7.51 5.433-10.379 9.083-2.447 3.113-5.289 5.992-6.66 9.869-.183.518-1.023.812-1.571 1.193-2.661 1.851-4.785 4.009-5.966 7.223-1.169 3.179-3.067 6.082-4.506 9.171-.7 1.503-1.215 3.124-1.578 4.744-.423 1.89 1.007 2.853 2.291 3.853.952.742 1.17 1.765.369 2.695-1.197 1.391-1.05 2.829-.636 4.445.214.833-.003 1.78-.043 2.674-.128 2.895.057 5.58 2.457 7.798 1.948 1.8 2.697 4.031 2.259 6.996-.471 3.181.17 6.524.299 9.797.125 3.182.654 6.427.216 9.533-.622 4.413-3.079 8.097-6.675 10.758-2.551 1.888-5.294 3.597-8.157 4.953-1.961.929-3.433 2.159-4.616 3.863-1.047 1.508-2.359 2.654-3.861 3.752-1.801 1.317-3.239 3.161-4.704 4.887-.34.401-.315 1.287-.179 1.887.526 2.319.951 4.696 1.804 6.9 2.071 5.346.697 10.316-1.519 15.125-.916 1.988-2.869 3.22-5.091 3.75-1.107.264-2.248.394-3.346.687-2.006.536-3.154 1.838-2.546 3.767 1.03 3.267-.443 6.004-1.21 8.907-.763 2.89-2.058 5.293-4.526 7.354-2.195 1.832-3.511 4.705-5.264 7.082-1.474 2-2.948 4.007-4.553 5.9-1.548 1.826-3.264 3.508-4.903 5.257-2.766 2.95-5.808 5.408-9.934 6.251-1.53.312-2.991.996-4.461 1.569-3.839 1.496-7.853 1.129-11.831 1.168-1.808.018-3.508.574-5.233.939-2.791.591-5.646 1.358-8.438 1.582-2.138.172-4.428-1.443-6.63-2.314-.261-.103-.598-.562-.557-.797.366-2.124-.717-3.657-1.812-5.299-.34-.51-.086-2.023.401-2.371 2.069-1.482 1.593-3.331.588-4.826-2.411-3.589-3.744-7.452-4.43-11.702-.353-2.189-1.592-4.063-3.673-5.515-3.328-2.322-4.604-6.122-5.663-9.886-.368-1.309-.469-2.692-.719-4.036-.559-3.007-1.378-5.99-1.629-9.022-.213-2.58.114-5.225.414-7.817.142-1.228.057-2.195-.776-3.138-4.007-4.532-6.41-9.93-8.434-15.553-.533-1.48-1.39-2.893-2.333-4.162-1.312-1.764-1.604-3.665-1.601-5.786.004-4.495.889-8.798 2.291-13.041.676-2.046 1.371-4.135 1.625-6.257.309-2.573 1.569-4.483 3.306-6.184 3.451-3.38 3.847-7.295 2.155-11.612-.665-1.696-1.431-3.361-1.965-5.097-.286-.928-.534-2.134-.182-2.947 1.618-3.735-.07-7.023-1.593-10.051-1.632-3.245-3.166-6.279-3.654-10.029-.307-2.363-2.367-4.593-3.919-6.676-2.38-3.193-5.131-6.113-7.466-9.335-1.318-1.818-2.204-3.974-3.099-6.057-.263-.612-.154-1.695.24-2.224 1.96-2.631 2.203-5.569 2.116-8.7-.049-1.778.184-3.641.701-5.34.755-2.478 1.071-4.936.419-7.411-.352-1.335-.541-3.083-2.625-3.079-.203 0-.528-.133-.593-.289-1.45-3.473-4.224-2.112-6.702-1.87-1.702.167-3.405.349-5.112.422-2.894.123-4.232-.831-5.129-3.514-2.014-6.026-5.132-7.914-11.302-7.232-3.405.377-6.501 1.298-9.742 2.513-4.15 1.556-8.008 3.744-12.204 5.125-.849.28-2.028.934-2.542.608-1.841-1.167-4.002-.724-5.8-1.411-4.22-1.612-8.041-.34-11.944.877-.867.27-1.768.543-2.534 1.01-4.853 2.954-8.886 1.263-12.571-2.197-2.49-2.339-4.84-4.809-8.024-6.293-.726-.339-1.339-1.265-1.66-2.059-.792-1.956-2.14-3.283-4.117-3.79-3.594-.92-4.265-4.007-5.364-6.826-.773-1.982-1.215-4.24-2.473-5.854-2.493-3.197-5.302-6.191-8.278-8.949-1.366-1.267-3.235-1.919-4.299-3.701-1.416-2.372-2.36-4.615-.693-7.266.959-1.526-.107-2.87-.822-4.106-.556-.963-1.437-1.737-2.134-2.549 1.305-2.745 2.573-5.374 3.809-8.018 1.859-3.977 2.358-8.238 2.469-12.553.019-.734-.546-1.468-.748-2.226-.199-.745-.599-1.647-.356-2.262.981-2.484.187-4.698-.663-6.937-.574-.09-1.107-.173-1.751-.273-.049-3.523-.025-6.899 2.534-9.695.501-.547.697-1.413.923-2.166.932-3.098 2.756-5.565 5.575-7.068 1.717-.916 2.2-2.119 2.073-3.867-.065-.902-.107-1.827.02-2.716.377-2.63 1.363-4.808 4.258-5.59 2.165-.585 3.504-1.724 3.391-4.356-.101-2.332 1.496-3.645 3.774-4.162 6-1.361 9.918-5.241 12.486-10.624.35-.734.218-1.72.223-2.59.005-.902-.435-1.966-.093-2.678 1.634-3.401 2.483-7.179 5.842-9.713 2.443-1.844 4.684-3.914 7.466-5.295.632-.314 1.113-1.077 1.49-1.733 1.244-2.169 2.362-4.409 3.613-6.574 1.438-2.487 2.634-2.702 4.364-.504 1.302 1.655 2.695 2.069 4.716 1.932 2.409-.162 4.789-.765 7.337.256 1.186.475 3.133-.728 4.651-1.368 1.225-.517 2.331-1.321 3.479-2.015.847-.512 1.816-.918 2.485-1.608 1.773-1.83 3.88-2.561 6.387-2.793 3.722-.344 7.444-.849 11.108-1.577 2.194-.436 4.199-.643 6.326.273.808.348 2.045.347 2.831-.03 2.134-1.023 4.223-1.166 6.575-1.001 2.757.193 5.625.711 8.353-.848.889-.508 2.408-.129 3.578.125 1.254.271 2.437.873 4.226 1.546 1.056 1.502-.375 3.043-1.502 4.703 2.577 2.824 1.688 5.379-.343 8.004-2.069 2.675-1.989 2.769 1.074 4.858 1.501 1.024 2.992 2.11 4.622 2.887 1.935.923 3.93 1.463 6.245 1.105 1.835-.284 3.845.157 5.71.574 2.232.5 3.885 1.785 4.405 4.239.435 2.057 1.844 3.057 3.932 3.081 3.441.04 6.472 1.099 9.077 3.414.659.586 1.54 1.076 2.395 1.262 3.06.666 5.082-1.71 4.072-4.694-.217-.642-.534-1.25-.795-1.85 1.564-3.45 3.949-5.239 7.766-5.901 3.621-.628 6.455-.068 9.066 2.393.451.425 1.185.577 1.814.777.753.24 1.604.257 2.289.611 4.307 2.223 9.093 2.755 13.684 3.971 2.192.581 4.43 1.046 6.548 1.831 1.453.538 2.64.492 3.848-.395.276-.203.574-.377.844-.586 3.414-2.641 6.847-2.532 10.446-.288 2.502 1.56 5.292 1.073 7.967.5 1.63-.349 2.256-1.817 2.659-3.273 1.181-4.262 2.214-8.546 3.677-12.752 1.001-2.876.44-6.298.562-9.477.03-.776.005-1.554.005-2.186-1.691-.109-3.135-.411-4.519-.234-1.394.178-2.903.567-4.055 1.328-3.199 2.115-4.695 2.144-7.91-.217-1.003-.737-2.092-1.474-3.258-1.841-1.562-.491-3.168-1.116-4.505.927-.921 1.407-2.593 1.728-4.25.643-1.121-.734-2.298-1.419-3.53-1.932-.79-.329-1.727-.4-2.6-.411-1.107-.014-2.216.15-3.394.242-.529-1.39-.869-2.599-1.441-3.686-.446-.847-1.048-1.732-1.813-2.27-2.314-1.626-2.358-1.564-.187-4.197-.864-1.695-2.055-3.388-2.569-5.267-.328-1.198.345-2.67.616-4.295-1.378-.346-3.17-.882-4.999-1.232-1.833-.351-3.722-1.111-5.114 1.233-.404.68-2.003.651-3.405 1.045.413.987.774 1.762 1.063 2.564.261.724.454 1.473.655 2.217.216.8.349 1.628.629 2.403.19.527.779.966.826 1.477.108 1.177.325 2.551-.175 3.487-.238.446-2.017.154-3.081.039-.48-.051-.918-.484-1.796-.983 2.592 3.745 3.057 6.169 1.866 8.672-.948-.308-1.883-.805-2.856-.893-3.514-.316-3.408-.299-4.463-3.627-.571-1.8-1.459-3.54-2.447-5.158-1.416-2.318-3.063-4.494-4.593-6.743-.44-.648-.684-1.492-1.247-1.982-1.268-1.104-1.527-2.447-1.419-4.001.318-4.585-1.777-7.83-5.621-10.135-.963-.577-1.757-1.432-2.712-2.024-1.311-.812-2.736-1.439-4.05-2.248-1.623-1-3.634-1.786-4.658-3.242-1.368-1.947-3.342-3.076-4.832-4.736-2.354-2.623-4.751-3.047-7.819-.939-.054.424.026 1.164-.254 1.725-.762 1.525-.24 2.607.922 3.591 2.25 1.904 4.279 3.842 5.588 6.7 1.074 2.346 3.686 3.684 6.272 4.354 1.371.355 2.508.452 3.111 2.118.295.814 1.677 1.401 2.684 1.759 2.634.937 4.952 2.342 6.918 4.29 1.328 1.316 1.194 1.838-.407 3.35-1.646-.721-3.256-1.425-4.866-2.13-1.173 1.199-1.786 1.999-1.055 3.5 1.455 2.985-.056 7.404-3.177 8.413-2.565.829-3.848 1.807-3.606 4.706.154 1.842-1.349 2.564-3.064 1.723-2.759-1.353-5.491-2.768-8.164-4.281-.562-.318-1.286-1.496-1.13-1.721.456-.658 1.27-1.324 2.031-1.448.961-.157 2.027.415 3.017.325 2.922-.265 5.829-.701 8.465-1.036 2.382-2.641 1.261-5.152.536-7.634-.089-.304-.295-.695-.553-.811-3.339-1.503-5.669-4.348-8.595-6.393-.362-.253-.794-.43-1.219-.562-5.953-1.854-10.149-5.758-13.275-11.053-.785-1.33-2.032-2.47-3.273-3.432-2.134-1.653-2.607-1.543-4.699.237-.087.074-.144.2-.241.24-2.747 1.143-5.358 2.477-7.803 4.234-.717.515-2.359-.296-3.585-.442-2.346-.279-4.718-.835-7.041-.682-2.344.154-3.297 1.548-3.479 3.466-.159 1.664.063 3.811-.875 4.854-1.612 1.794-3.827 3.473-6.099 4.129-2.457.709-3.89 1.885-5.074 3.99-.997 1.772-2.41 3.31-3.74 5.088.351.994.723 2.045 1.162 3.289-1.365 1.738-3.534 3.136-3.613 5.794-.008.258-.404.537-.669.745-.266.209-.637.292-.884.516-3.612 3.279-7.689 4.89-12.715 4.49-1.975-.158-4.115.87-6.073 1.63-1.916.743-3.145-.012-4.048-1.465-1.795-2.89-4.176-3.892-7.539-3.13-1.342.304-2.852-.137-4.534-.257 0-1.879.134-3.368-.045-4.819-.13-1.054-.42-2.286-1.092-3.031-1.179-1.307-.883-2.406-.242-3.732.988-2.042 1.88-4.131 2.806-6.203.186-.416.487-.842.491-1.266.037-4.144.022-8.288.022-12.971 1.305-.922 3.103-2.234 4.956-3.461.315-.209.953-.225 1.295-.047 2.067 1.069 4.241.368 6.361.507 5.446.357 10.884.824 16.329 1.196 2.841.194 3.356-.242 3.959-2.946.395-1.771.793-3.541 1.218-5.305.469-1.947.477-3.831-.526-5.645-2.376-4.299-5.204-8.096-10.539-8.776-2.706-.345-2.894-2.456-3.698-4.769 2.214-.466 4.267-1.185 6.341-1.254 2.061-.068 4.144.517 6.623.875.103-1.786.178-3.097.259-4.503 1.281-.836 2.524-1.317 3.846.133.329.361 1.005.488 1.544.562 2.252.309 7.712-3.131 8.717-5.233.447-.936 1.242-1.818 2.093-2.423 1.375-.977 2.901-1.756 4.411-2.527 2.834-1.447 5.21-3.238 6.063-6.556.198-.769.745-1.39 1.949-1.52 1.372-.148 2.61-1.263 3.991-1.671 2.003-.592 4.175-.44 5.859-2.211.529-.556 2.137-.087 3.602-.087 1.76-1.328 1.927-3.118.448-5.299-.813-1.2-1.287-2.63-1.907-3.941.357-1.285.612-2.626 1.106-3.872.613-1.547 1.088-3.176 3.192-3.625.996-.212 1.731-1.454 2.733-1.885.966-.415 2.333-.833 3.148-.45 1.263.593.619 1.934.247 3.032-.355 1.049-.553 2.151-.858 3.219-.276.964-.452 1.999-.938 2.852-1.512 2.652-.892 5.171 1.745 6.524.986.506 1.954 1.06 2.982 1.458.303.117.783-.224 1.443-.441-1.247-1.132-3.603-1.484-1.908-3.83.336-.465-.491-1.771-.814-2.788.557-.856.881-1.813 2.466-1.729 1.099.058 2.356-.676 3.331-1.359.518-.363.78-1.366.794-2.087.012-.617-.404-1.309-.789-1.855-2.467-3.5-4.977-6.97-7.719-10.792-2.032 1.284-4.342 2.648-6.549 4.162-3.64 2.496-7.97 2.572-10.724.048-.415-.381-1.013-.83-1.065-1.298-.539-4.843-3.257-9.269-2.568-14.377.226-1.676.634-2.864 2.243-3.387 3.163-1.029 5.867-2.872 8.675-4.577 1.381-.838 3.161-1.011 4.752-1.513.851-.269 1.818-.419 2.499-.933 1.868-1.409 3.625-2.967 5.401-4.495.937-.807 1.816-1.68 2.731-2.513.336-.306 1.023-.607 1.002-.867-.226-2.845 2.816-3.372 3.74-5.38.181-.394.518-.888.884-.998 3.58-1.071 4.965-4.307 7.005-6.915.469-.599 1.188-1.319 1.857-1.393 3.602-.399 5.083-3.606 7.453-5.564 1.771-1.463 2.432-2.227 4.299-1.262 1.197.618 2.052.622 3.163.092.598-.285 1.327-.441 1.989-.417 1.835.067 3.199-.573 4.537-1.897.875-.866 2.362-1.449 3.619-1.536 7.315-.508 14.623-.35 21.881.844 2.847.468 3.128.754 3.485 3.177 6.872 1.603 13.561 3.414 20.354 4.664 4.913.904 9.304 2.951 13.759 4.947.905.406 1.823 1.026 2.438 1.787 1.491 1.844 1.099 3.493-.868 4.865-2.419 1.688-5.064 2.667-8.024 2.476-4.047-.261-8.086-.642-12.085-.967.543.613 2.192.953 1.609 2.73-.148.452 1.137 1.246 1.485 2.01 1.368 3.003 4.132 3.497 7.71 4.198-1.237-.869-2.001-1.211-2.469-1.791-.443-.548-.963-1.522-.751-1.994.307-.683 1.197-1.416 1.924-1.52.939-.134 1.992.247 2.946.558 2.236.728 4.443 1.547 7.066 2.471-2.065-3.615-1.859-3.981 1.777-5.252 1.131-.395 2.095-1.245 3.186-1.784 1.09-.538 2.218-1.03 3.377-1.389 1.056-.327 2.176-.448 3.751-.754-1.491-1.543-2.261-2.801-1.881-4.724.206-1.044-.877-2.342-1.375-3.517 4.834-1.613 8.746-1.144 11.759 1.797-1.311.869-2.534 1.68-4.163 2.761 2.035.76 3.764 1.51 5.557 2.04 1.232.365 2.437-.041 2.531-1.507.128-1.98 1.517-2.371 2.968-2.747 3.95-1.022 7.957-1.759 11.551-3.953 1.655-1.01 3.799-1.059 5.577.021 1.52.923 3.01.815 4.609.549 3.469-.577 6.929-1.271 10.423-1.597 1.718-.161 3.502.39 5.706.677-.439-.81-.713-1.231-.906-1.686-.723-1.7-.529-2.255 1.279-2.628 3.714-.765 7.49-1.043 11.136.203 4.524 1.547 8.963 3.341 13.451 4.996 1.232.454 2.507.792 3.762 1.183.114-.278.228-.556.342-.834-1.994-.988-3.95-2.065-5.997-2.928-1.103-.466-1.889-.968-2.463-2.115-.829-1.656-2.01-3.136-3.309-5.097.115-1.685 1.901-2.579 3.498-3.371-.235-4.764.453-5.575 5.095-6.2.675-.091 1.37-.075 2.054-.057 4.157.11 7.493 1.049 7.159 7.113.943.29 1.972.606 3.002.923.425.89.817 1.798 1.282 2.666.749 1.398 1.721 2.703 2.278 4.17.627 1.65 1.531 2.875 2.881 4.065 2.543 2.243 3.472 5.438.4 7.825-.999.776-1.768 1.846-2.764 2.913 2.74 1.002 4.838.8 6.833-.632 2.381-1.71 2.753-4.31 1.166-6.725-.698-1.062-.847-2.485-1.315-3.963-2.972.506-5.086-1.516-5.913-4.154C1154.347 718.68 1152.268 717.22 1150.327 715.441zM987.338 777.832c-.635 1.073-1.246.29-1.428-.205-.191-.52-.147-1.424.192-1.791 1.674-1.811 3.24-3.614 5.801-4.533 3.748-1.345 7.365-2.263 11.289-1.036.751.235 1.586.38 2.36.311.827-.073 1.718-.299 2.418-.726 1.062-.646 1.983-1.523 3.377-2.629-1.305-.529-2.429-1.424-3.453-1.322-3.616.361-7.343.621-10.755 1.749-4.35 1.437-8.259 1.76-12.356-.663-1.466-.867-2.221-1.673-2.379-3.332-.112-1.183-.378-2.483-1-3.46-1.775-2.785-1.539-5.806.95-7.84 1.053-.861 2.214-1.599 3.372-2.32 2.894-1.802 5.155-4.286 7.754-6.49-3.208-2.697-8.432-2.189-11.898.883.073.945.148 1.928.26 3.384-3.894 2.225-7.735 4.671-11.802 6.653-2.597 1.266-2.939 3.303-2.931 5.621.007 2.092.427 3.986 2.757 5.004 1.187.518 2.167 1.631 3.065 2.633.37.412.598 1.438.345 1.841-1.242 1.973-2.084 4.482-4.677 5.097-2.554.606-2.898 2.185-3.062 4.505-.213 3.018-.809 6.078-2.531 8.718-.566.042-1.018.09-1.471.108-1.826.073-3.723-.107-4.131 2.498-.072.458-1.217.999-1.903 1.056-1.221.101-2.471-.138-3.693-.234-.634-.992-1.207-1.886-1.856-2.901-.677 2.455-1.276 4.626-1.755 6.363 1.573 0 3.242-.429 4.493.111 1.479.639 2.598 2.114 3.979 3.32 2.668-.902 5.319-1.916 8.039-2.686 2.618-.741 5.294-1.299 7.974-1.777.651-.116 1.458.308 2.115.64 1.258.636 3.567.468 4.507-.43 1.14-1.088 2.283-2.173 3.09-2.941.377-2.983.658-5.647 1.068-8.291.242-1.565 1.124-2.767 2.713-3.22.927-.264 1.22-.818 1.165-1.678 2.061 1.272 3.786 3.166 6.26 3.754 1.797-4.487 1.742-4.643-1.015-5.384C990.429 776.867 988.883 777.35 987.338 777.832zM1052.176 842.694c-.547 2.42-1.335 3.195-3.654 2.819-2.188-.355-3.895-.255-5.535 1.556-1.356 1.497-3.026.986-3.564-.961-.309-1.119-.799-1.719-1.768-2.265-2.286-1.287-2.252-1.348-.857-3.983-2.002-.113-3.893-.341-5-2.306-.216-.383-1.227-.422-1.876-.439-2.307-.06-3.499 1.428-4.841 3.105-.973 1.216-1.486 2.377-1.97 3.795-.417 1.224-2.339 2.092-2.455 3.233-.41 4.029-3.516 6.813-4.274 10.257.866 1.529 1.426 3.061 2.445 4.172 1.103 1.202 2.634 2.01 4.011 3.014-1.052 2.084-2.745 1.732-4.284 1.68-1.006-.034-2.137-.467-2.176 1.398 1.362 0 2.733.154 4.048-.051.958-.149 2.389-.551 2.662-1.224 1.111-2.746 3.3-2.486 5.44-2.269 1.894.192 3.421-.151 5.118-1.2 3.934-2.432 8.497-3.084 13.015-3.654.606-.076 1.271.338 1.911.516 3.816 1.062 7.279 3.023 11.157 4.063 3.031.812 6.029.321 9.003.981 1.796.398 5.785-2.424 6.155-3.709.51-1.768-.929-4.112-3.481-5.802-3.479-2.304-6.723-4.963-10.466-6.865-1.823-.926-3.709-1.765-5.407-2.885-.965-.637-2.206-1.725-2.267-2.676-.113-1.773 1.937-.944 2.871-1.528.76-2.055 1.558-4.066-.515-6.139-3.388 2.184-8.339.507-11.089 3.993C1045.894 843.609 1050 840.676 1052.176 842.694zM1055.725 1085.401c-1.528-.454-2.471-.462-2.993-.935-2.292-2.077-4.578-.688-6.7.063-1.433.507-2.778 1.709-2.835 3.531-.077 2.451-.019 4.906-.019 7.212 2.548.175 4.637.318 6.035.413C1051.53 1092.026 1053.527 1088.873 1055.725 1085.401zM1124.547 947.231c1.765-1.538 1.765-1.538-.297-2.998C1124.365 945.39 1124.456 946.31 1124.547 947.231zM1506.898 758.196c-.815-2.256-.815-2.256-2.501-2.008C1505.147 756.79 1505.726 757.255 1506.898 758.196zM481.773 998.764c2.489 1.896 5.579 1.563 8.461.599 3.067-1.026 6.052-.877 9.095-.422.73.109 1.42.668 2.067 1.11 1.264.864 2.486 1.791 4.152 3.003.177 1.985.609 4.505-.761 7.012-.632 1.157-.751 2.603-1.06 3.928-.491 2.103-.868 4.235-1.434 6.317-1.249 4.595-1.294 8.802 3.186 11.86 1.124.767 2.024 1.89 3.193 2.561 2.062 1.183 4.238 1.578 6.5.279 1.177-.676 2.473-1.151 3.733-1.676 4.327-1.802 10.147.82 12.079 5.71 1.664-1.721 3.376-3.226 4.745-4.997 1.007-1.302 1.89-2.881 2.227-4.465.319-1.502 1.01-2.416 2.124-3.295 2.429-1.916 4.896-3.371 8.172-3.75 2.235-.258 4.9-1.373 6.317-3.015 1.867-2.163 3.579-1.849 5.747-1.452.826 2.792-1.109 3.722-3.122 4.778.187.715.368 1.408.668 2.555 2.492-2.574 6.329-2.609 7.808-6.503.874 1.156 1.515 2.003 2.296 3.036 2.227-.251 4.217.16 5.647 2.522.543.898 2.301 1.307 3.566 1.471 2.796.364 5.514.364 8.134 2.01 2.114 1.329 4.744 1.236 7.008-.629.798-.658 2.03-.999 3.094-1.08 2.143-.163 4.307-.049 6.352-.049 1.327 1.154-2.117 3.363 1.243 4.074.428-1.307.836-2.555 1.295-3.96 1.381-.323 2.881-.898 3.89.721.673 1.08-.269 2.625-2.289 4.113.79.907 1.855 1.698 2.281 2.747.388.958.082 2.197.082 3.319 1.539.505 3.02 1.062 4.54 1.475 2.636.718 4.408 2.488 5.381 4.866.853 2.085 2.322 3.396 3.894 4.884 2.667 2.524 5.391 3.809 9.144 3.198 2.703-.44 5.451.004 7.975 1.333.58.305 1.304.363 1.972.474 2.204.366 4.11 1.129 5.355 3.19.51.844 1.298 1.693 2.167 2.118 3.266 1.6 4.292 4.656 4.989 7.753.613 2.723 1.43 5.203 3.162 7.449.689.893.991 2.294.996 3.466.019 4.017 1.295 5.739 5.094 6.472.779.151 1.533.435 2.504.717.301.804.645 1.719 1.047 2.791 2.674-1.126 5.083-.314 7.461.892 1.117.566 2.281 1.063 3.465 1.469 3.261 1.12 6.105 2.667 6.788 6.685 3.178-1.492 5.813-.491 8.416.697 3.191 1.457 6.435 2.114 9.98 1.395 1.22-.247 2.765.052 3.896.625 3.253 1.65 6.148 3.839 8.531 6.659 1.742 2.061 3.839 3.609 6.629 3.851 4.603.4 6.531 3.345 7.588 7.444 1.409 5.465.583 10.748-1.623 15.668-1.465 3.267-3.824 6.216-6.18 8.967-1.196 1.396-2.19 2.766-3.015 4.393-.971 1.915-2.009 3.94-3.516 5.404-1.924 1.871-3.017 4.212-3.216 6.524-.256 2.972.423 6.072 1.02 9.052.291 1.454.76 2.675.215 4.255-.58 1.679-.462 3.588-.786 5.371-.238 1.308-.711 2.572-1.057 3.861-.343 1.278-1.068 2.618-.908 3.837.469 3.563-.915 6.491-2.745 9.259-1.043 1.578-1.855 3.005-1.55 5.029.152 1.009-.171 2.426-.834 3.15-1.28 1.399-2.957 2.397-3.758 4.281-.185.435-1.14.625-1.777.766-.886.196-1.805.247-2.712.349-4.102.466-7.986 1.411-11.517 3.8-1.939 1.312-4.488 1.705-6.476 2.963-6.692 4.234-6.541 5.866-5.543 14.18.093.778.573 1.505.694 2.284.505 3.264.402 6.282-2.554 8.644-1.856 1.483-3.289 3.334-3.445 6.03-.134 2.312-1.085 2.796-3.777 2.696-1.183 2.474-2.364 4.874-3.062 7.725-1.174 4.796-3.145 9.494-6.513 13.371-1.189 1.369-2.328 2.134-4.41 1.654-4.331-.999-8.758-1.581-13.957-2.473 1.16.691 1.595 1.077 2.099 1.229 2.745.827 4.577 2.411 5.051 5.405.109.69.674 1.498 1.268 1.885 1.777 1.157 1.767 2.782 1.471 4.533-.114.672-.287 1.347-.532 1.982-.683 1.77-.941 4.128-2.237 5.143-2.252 1.763-4.826 3.337-8.068 3.307-3.019-.028-6.043.493-8.883.756.632 2.794 1.262 5.575 1.96 8.659-3.081 4.555-7.461 2.285-11.976 1.456.769 1.755 1.267 3.219 2.047 4.515.335.556 1.218.925 1.917 1.079.753.166 1.616-.172 2.374-.016 1.352.279 2.26 1.243 2.252 2.623-.008 1.385-.979 1.956-2.344 1.834-.335-.03-.675-.005-1.08-.005-.035 2.532-.879 5.014.412 7.5.24.463-.472 1.689-1.048 2.251-1.125 1.098-2.449 1.998-3.721 2.938-2.006 1.481-2.322 3.482-.522 5.177 1.647 1.551 3.447 2.919 5.797 3.463 3.698.856 4.807 4.345 2.404 7.26-.503.61-1.17 1.082-1.738 1.64-.403.396-.957.767-1.118 1.257-.906 2.749-1.992 5.483-2.47 8.314-.412 2.444 1.362 4.336 3.153 5.689 1.825 1.378 2.96 3.026 3.784 5.084.404 1.01 1.102 2.001 1.909 2.734 2.619 2.378 5.367 4.561 8.84 5.686 2.226.721 4.348 1.765 6.928 2.835-2.224 1.851-4.399 1.339-6.424 1.256-3.05-.126-6.093-.425-9.136-.677-1.124-.093-2.284-.119-3.352-.432-1.416-.415-.904-1.906-1.36-2.856-.515-1.073-1.395-2.071-2.341-2.817-2.075-1.636-2.133-1.563-2.075-3.987-1.172-.765-2.093-.196-3.044.534-4.363 3.352-7.032 3.284-10.725-.805-1.74-1.927-4.219-3.503-4.234-6.718-.005-.971-.973-2.062-1.733-2.882-2.926-3.154-4.305-7.177-6.288-10.86-.211-.392-.521-.893-.433-1.258 1.047-4.343-1.753-7.613-3.254-11.168-.986-2.335-2.036-4.547-2.094-7.116-.013-.569-.08-1.141-.176-1.702-.516-3.01-.944-6.041-1.618-9.016-.374-1.652-1.071-3.257-1.819-4.787-.304-.621-1.174-1.448-1.708-1.394-2.91.294-3.454-1.9-4.009-3.794-.925-3.161-1.797-6.379-2.225-9.634-.441-3.357-1.563-6.415-2.983-9.407-.623-1.312-.723-2.371-.104-3.842.62-1.472.416-3.302.52-4.978.111-1.794-.124-3.66.292-5.373.993-4.082 1.017-8.124.156-12.19-.658-3.104-1.49-6.172-2.106-9.283-.279-1.409-.231-2.884-.306-4.331-.029-.567.171-1.19 0-1.698-1.611-4.778-.383-9.62-.428-14.432-.019-2.023-.354-4.044-.563-6.064-.058-.565-.233-1.12-.261-1.684-.475-9.776-.654-19.578-1.534-29.317-.365-4.037-.348-8.636-3.793-11.752-3.618-3.273-7.121-6.755-11.761-8.667-2.526-1.041-5.01-2.196-7.572-3.137-2.797-1.027-3.914-3.714-5.727-5.665-1.642-1.767-3.462-3.676-3.505-6.43-.003-.204-.161-.436-.306-.605-3.882-4.511-5.227-10.339-8.013-15.417-.384-.699-.657-1.547-1.228-2.041-3.865-3.345-4.439-8.586-7.314-12.519-1.808-2.472-3.007-5.348-6.278-6.437-1.329-.442-2.054-1.5-1.879-3.234.124-1.23-.328-2.704-.985-3.79-1.424-2.355-.978-4.331.664-6.25 1.317-1.539 2.692-3.028 4.005-4.569.728-.854.559-1.551-.363-2.26-3.668-2.824-4.018-6.621-2.146-10.701 1.036-2.257 3.386-4.259 2.413-7.411-.405-1.313 1.103-2.242 2.38-2.4 2.507-.311 3.721-1.323 3.925-4.08.12-1.622 1.228-3.175 2.984-4.307 2.313-1.49 3.5-4.181 4.06-6.839.559-2.654.512-5.431.821-8.143.41-3.602-.867-6.713-2.62-9.719-1.374-2.356-1.36-2.364-.862-5.308-1.608-1.036-3.289-2.118-5.046-3.251-1.441 1.238-2.639 2.267-3.875 3.329 0 .465-.117.947.022 1.34.417 1.179.533 2.417-.71 2.961-1.349.591-3.089.908-4.098-.5-1.502-2.098-3.532-2.604-5.88-2.953-2.295-.341-4.315-1.339-5.385-3.713-1.162-2.577-3.728-3.586-6.031-4.688-3.456-1.653-4.408-3.586-2.671-6.998.435-.855 1.622-1.327 2.695-2.154 0 .235.085-.039-.016-.168-.342-.437-.75-.823-1.108-1.202-3.463 1.827-4.623 1.55-5.969-2.027-.826-2.195-2.428-3.551-4.034-4.946-.588-.511-1.669-.702-2.498-.645-3.171.218-5.712-1.415-8.339-2.727-.703-.351-1.083-1.347-1.758-2.241-4.713 1.242-7.544-1.533-10.188-4.965-1.303-1.691-3.022-3.071-4.606-4.534-1.563-1.442-3.401-1.709-5.417-1.093-1.191.364-2.409.64-3.611.967-2.285.623-4.543.472-6.722-.383-3.926-1.54-7.823-3.155-11.734-4.733-2.874-1.159-5.237-3.133-7.814-4.737-3.607-2.246-7.595-3.852-10.521-7.11-4.165-.932-4.374-4.5-5.011-7.7-.134-.675.262-1.595.685-2.219 2.259-3.333 1.328-6.458-.468-9.561-.74-1.279-1.64-2.489-2.21-3.84-1.725-4.09-4.276-7.495-7.853-10.133-1.385-1.022-2.227-2.196-1.553-4.096.217-.613-.056-1.548-.394-2.182-1.223-2.294-2.899-4.33-3.248-7.081-.114-.9-1.004-1.788-1.713-2.511-2.892-2.952-3.759-6.605-3.905-10.562-.066-1.804.348-4.07-.572-5.269-.878-1.144-3.208-1.175-4.858-1.683-2.571 3.656-2.707 7.769-.219 11.163 1.386 1.891 2.418 3.77 2.522 6.204.05 1.181.873 2.315 1.259 3.498.776 2.376 1.576 4.748 2.212 7.163.972 3.69 1.48 7.52 3.967 10.663 1.196 1.512 1.638 3.291.65 5.099-.27.494-.971.751-1.703 1.283-.537-1.014-.923-1.798-1.357-2.554-1.071-1.863-1.999-3.756-4.22-4.714-2.514-1.084-2.83-2.056-2.365-4.926.641-3.954.149-4.238-3.482-5.847-1.929-.855-3.537-2.782-4.854-4.55-.923-1.239-.104-2.743 1.359-3.629 2.188-1.324 2.479-2.214 1.404-4.376-.203-.408-.402-.851-.716-1.164-2.757-2.74-2.953-6.145-3.063-9.8-.119-3.953-.692-7.953-1.605-11.804-.81-3.415-3.567-5.479-6.847-6.449-3.726-1.102-3.714-.954-3.811-4.806-.083-3.279-.524-6.562-.421-9.831.09-2.848.322-5.61-1.303-8.154-.229-.358-.316-.891-.275-1.324.364-3.775.143-7.681 3.108-10.769 1.162-1.21 2.475-2.72 2.739-4.261.77-4.485 3.938-7.333 6.452-10.655 3.437-4.543 7.184-8.894 10.179-13.712 2.187-3.518 3.375-7.656 5.084-11.696-1.209-1.324-2.29-2.462-3.32-3.644-1.778-2.041-3.058-4.222-1.82-7.136 2.32.219 4.528.427 6.737.635.1-.185.199-.37.299-.555-.51-.409-.959-.963-1.539-1.202-2.63-1.086-3.431-2.031-2.263-4.27 1.557-2.985 1.375-6.025.952-9.015-.46-3.256.246-5.811 3.025-7.909-.421-.897-.816-1.683-1.16-2.491-.259-.607-.681-1.258-.638-1.861.247-3.505.286-3.502-1.849-6.583.314-.566.705-1.219 1.046-1.898.728-1.448.195-2.944-1.349-2.966-2.797-.04-3.694-1.963-4.517-3.977-.961-2.353-2.294-3.762-5.094-4.064-3.932-.424-7.623-2.089-11.709-2.231-2.644-.092-5.078-1.716-6.779-4.195-2.35.762-4.612 1.495-7.099 2.301-.287 2.509-1.981 3.619-4.43 4.181-3.875.889-7.682 2.075-11.536 3.061-.731.187-1.551.027-2.333.027.095-1.916.095-1.916 3.027-4.598-.986.192-1.574.212-2.083.42-2.849 1.168-5.831 2.113-8.488 3.625-11.616 6.605-24.55 10.07-36.608 15.605-.928.426-1.822.925-2.723 1.407-2.159 1.153-4.317 1.924-6.811.872-.841-.355-1.905-.184-3.033-.898 1.095-.344 2.211-.634 3.279-1.046 1.575-.607 3.156-1.221 4.665-1.972 3.656-1.822 7.233-3.805 10.915-5.571 2.934-1.407 5.975-2.591 9.417-4.065-2.768-1.572-5.06-2.026-7.636-1.362-1.726.445-3.541.92-5.427-.077-.219-2.483 2.509-2.706 3.515-4.59-1.407-.297-2.474.184-3.531.605-1.118.446-2.048.296-2.608-.828-.609-1.221-1.508-2.808-.143-3.719 1.478-.987 1.572-2.38 2.107-3.7.765-1.889 1.931-3.176 4.121-3.626 1.864-.383 3.654-1.229 5.409-2.021 3.315-1.496 6.452-3.444 10.218-3.716.549-.04 1.127-.276 1.609-.562 2.101-1.244 4.311-1.898 6.791-1.996 2.795-.11 5.157-1.482 7.61-3.65-5.273 0-10.165 0-15.457 0 .345-1.841.576-3.708 1.094-5.491.183-.63.998-1.388 1.642-1.522 5.012-1.039 10.048-1.961 15.09-2.846.448-.079 1.098.25 1.466.592 1.341 1.243 2.806 1.246 4.432.738 1.694-.529 3.421-.956 5.866-1.63-3.547-2.011-4.187-5.307-5.771-8.029 2.64-2.764 6.029-2.806 9.235-3.41 2.448-.461 4.938-.863 7.284-1.662 4.512-1.536 8.926-3.356 13.4-5.006 1.061-.391 2.186-.725 3.304-.827 4.08-.369 8.167-.68 12.257-.908 2.379-.133 4.686-.066 7.034-1.02 1.56-.634 3.615-.362 5.388-.096 4.37.657 8.596 2.103 13.108 2.074 1.646-.011 3.275.958 4.951 1.182 4.712.63 9.39 1.688 14.223.844 2.153-.376 4.254.123 6.14 1.508 1.461 1.073 3.083 1.552 5.1 1.329 1.411-.156 3.069.721 4.416 1.489 1.877 1.069 3.652 1.287 5.451.128 2.681-1.727 5.78-1.048 8.658-1.625 3.678-.738 7.392-1.322 11.111-1.813 2.243-.296 4.531-.231 6.789-.436 1.673-.151 3.405-.248 4.977-.771 2.799-.932 3.163-.855 4.081 2.075.101.321.234.632.416 1.116.841.111 2.007.649 2.576.276 2.803-1.837 5.935-.653 8.865-1.211 3.59-.683 7.089.009 10.082 2.21 1.881 1.383 3.722 1.922 6.059 1.359 2.37-.571 3.352-.036 6.424 2.601-.825.813-1.621 1.599-2.591 2.554.495.187 1.037.581 1.561.559 3.183-.139 6.373-.268 9.537-.612 2.24-.244 4.37-1.039 6.735-.307.814.252 2.181-.531 3.007-1.199 3.959-3.204 11.761-3.465 15.432-.219 2.46 2.175 5.327 1.685 8.132 1.647 2.614-.036 5.224-.286 7.836-.423 1.34-.07 2.527-.282 3.854-.882 3.005-1.358 5.93-.16 8.843 1.492 3.388-1.356 7.166-2.456 9.142-6.511-.564-.436-1.11-.805-1.592-1.242-1.494-1.356-1.406-1.69-.217-3.381 2.92-4.155 7.444-5.366 11.926-6.637 1.409-.4 3.209.709 3.328 2.193.199 2.492 1.066 5.321-2.473 6.878 1.998 1.178 4.029 2.108 2.816 4.976.786-.529 1.522-1.374 2.371-1.51 1.117-.179 2.526-.132 3.437.425 1.043.637.645 2.332-.619 3.573-.634.623-1.389 1.123-1.997 1.605-.047 1.436.737 1.753 1.764 1.704.446-.021.933-.117 1.317-.331 4.691-2.607 9.178-5.452 11.812-10.42-1.724-.937-3.321-1.804-4.919-2.672-2.515-1.367-3.344-3.9-1.335-5.709 3.197-2.879 6.738-5.413 10.335-7.788 1.104-.729 2.862-.499 4.327-.642 1.92-.187 3.846-.32 5.772-.452 1.25-.086 2.608-.354 2.723 1.04 3.441-.211 6.608-.521 9.779-.567 2.864-.042 3.227.607 2.531 3.592-.075.323-.074.664-.128 1.188 1.708 0 3.349 0 5.627 0-1.804-1.751-3.356-3.216-2.476-5.499 4.771-1.128 9.89.169 11.863 3.234-.917.408-1.782.793-2.67 1.188.043.108.062.362.182.425 1.607.848 3.271 1.595 4.833 2.515 1.971 1.161 3.904 2.203 6.259 2.561 2.732.415 5.228 1.733 7.249 3.619.921.86 1.598 2.197 1.916 3.438.501 1.952-.06 3.607-2.326 4.215-.389.104-.695.52-1.455 1.119 1.138.715 1.985 1.388 2.94 1.818 1.765.794 3.578 1.487 5.399 2.145 1.978.714 3.205 2.104 3.931 4.018.923 2.432.672 3.373-1.356 5.024-1.767 1.439-3.525 2.889-5.304 4.314-1.807 1.448-3.475 1.363-5.104-.318-.711-.734-1.36-1.549-1.917-2.406-2.077-3.188-2.958-3.608-6.594-2.902-.534.104-1.04.347-2.005.68.887 1.043 1.557 1.882 2.283 2.67.922 1.001 2 1.877 2.816 2.954 1.738 2.296 1.65 4.601-.087 6.898-1.847 2.442-4.678 3.433-7.192 2.488-1.347-.506-2.675-1.063-4.522-1.8.988 2.428 1.738 4.271 2.508 6.163-1.5 1.487-3.087 1.066-4.559.571-2.695-.905-5.356-1.922-7.996-2.979-1.855-.743-3.341-1.874-3.886-3.995-.25-.971-.819-1.871-1.314-2.764-.869-1.567-2.096-1.983-3.978-1.855-3.848.262-7.728.148-11.591.038-1.592-.045-2.092-1.195-1.405-2.676 1.331-2.87 4.245-4.039 7.319-3.358 2.3.51 4.709.679 7.072.703 1.442.014 2.671-.477 3.334-2.294.433-1.188 2.05-1.989 3.218-2.854 1.552-1.15 3.31-2.049 4.751-3.316 2.05-1.803 1.774-3.875-.674-5.132-1.576-.809-2.637-1.886-3.664-3.333-1.077-1.517-2.835-2.549-4.161-3.678-6.052 1.994-11.814-.053-18.084.267.697.487 1.011.754 1.365.947 3.07 1.679 3.25 3.531.361 5.502-1.481 1.011-3.434 1.439-3.137 3.897.044.369-.613.929-1.06 1.232-2.359 1.599-4.733 3.179-7.146 4.695-1.55.973-3.223.916-4.951.402-2.352-.7-2.366-.655-5.329.62 2.096 1.997 4.165 3.898 4.924 6.833.241.93 1.547 1.584 2.335 2.335-.84 2.799-1.367 3.125-3.7 2.35-.324-.108-.705-.168-.948-.379-2.709-2.355-5.288-1.1-7.853.264-1.601.851-3.174 1.754-4.79 2.651-1.434-1.139-2.722-2.161-4.011-3.184 2.091-2.428 4.122-4.786 6.634-7.704-1.241.083-1.781-.05-2.027.16-3.498 3-7.524 5.047-11.816 6.6-1.817.657-3.412 1.73-5.077 2.555-2.785 1.379-4.848 4.561-8.64 3.871-.898-.164-1.962.475-2.928.808-6.123 2.109-11.6 5.387-16.424 9.645-2.084 1.839-3.679 4.233-5.835 6.774 1.272.299 1.89.395 2.473.592 1.329.449 1.701 1.309 1.221 2.671-.595 1.691-1.048 3.432-1.59 5.241.581.117.938.309 1.216.228 5.315-1.544 9.127.542 13.081 4.159 2.916 2.667 6.528 5.125 11.192 4.937 2.383-.096 4.811.939 7.486 1.521-1.703 3.055-3.181 5.687-4.64 8.329-2.06 3.729-1.479 6.878 1.819 10.004 1.668-.619 3.422-1.065 4.967-1.898 1.715-.925 3.028-2.367 3.542-4.369.447-1.739.934-3.468 1.376-5.209.193-.761.52-1.561.44-2.306-.242-2.245.878-3.233 2.838-4 3.382-1.323 6.634-2.975 9.983-4.389 2.574-1.087 4.159-3.153 5.589-5.364 1.785-2.759 1.64-3.904-.546-6.591-1.329-1.634-1.213-2.521.573-3.531.89-.503 1.846-.908 2.809-1.256 2.859-1.033 4.158-3.219 4.069-6.071-.057-1.816.573-3.021 1.819-4.171.544-.501.983-1.236 1.203-1.947 1.181-3.805 4.431-5.499 8.196-4.249 1.72.571 3.47 1.061 5.227 1.508.651.165 1.543.391 2.013.094 3.481-2.2 5.15.871 6.654 2.696 1.046 1.27 1.989 2.204 3.435 2.888.981.464 1.77 1.336 2.809 2.156-.67 1.429-1.278 2.634-1.808 3.872-1.255 2.935-1.043 4.341.81 5.817 1.661 1.323 4.505 1.471 6.428.211 2.763-1.811 5.47-3.708 8.206-5.561.999-.677 2.011-1.334 3.268-2.166 1.487 5.015 2.867 9.564 4.165 14.136.239.842.376 1.833.172 2.66-1.088 4.424.577 7.699 4.816 9.22 1.18.423 2.417.756 3.496 1.364.583.328 1.376 1.322 1.235 1.717-.575 1.617.317 2.345 1.414 3.054 1.603 1.037 2.249 2.265 1.736 4.32-.597 2.39-.254 5.023-2.772 6.686-.48.317-.077 1.757-.473 2.459-.977 1.733-2.18 3.338-3.467 5.253.497.875.914 2.63 1.924 3.095.974.448 2.553-.477 3.881-.717.663-.12 1.384-.183 2.035-.054 1.513.3 2.266 1.628 1.33 2.76-1.736 2.1-1.123 4.781-2.319 7.002.885.498 1.632.918 2.729 1.535-1.107 1.529-2.074 2.867-2.964 4.097-3.022-.286-5.603-1.36-8.402-3.091-.792-.49-1.913-.649-2.875-.627-3.851.089-7.699.348-11.55.445-.699.018-1.411-.431-2.623-.832 3.284-3.399 6.321-6.381 9.168-9.535 2.863-3.172 5.536-6.514 8.364-9.866-2.544-.786-4.79-.179-6.898 1.422-2.82 2.141-5.735 4.147-9.338 4.734-1.319.215-2.71.54-3.99.332-3.643-.591-7.208-.621-10.888-.081-3.023.443-6.158.18-9.241.133-1.547-.024-2.745.436-4.072 1.316-1.865 1.238-4.131 1.855-6.153 2.88-1.637.829-3.421 1.604-4.252 4.149 1.124-.597 1.826-.879 2.427-1.304 3.462-2.446 7.481-3.39 11.542-3.892 1.673-.207 3.616.421 5.198 1.172 1.851.879 1.855 2.454.202 3.751-1.581 1.241-2.92 2.309-3.545 4.571-1.257 4.545.652 8.073 5.446 8.717 2.155.29 4.234.728 5.944 2.795-.712.357-1.233.672-1.792.887-2.124.816-4.283 1.542-6.384 2.411-1.785.738-3.416 1.523-5.549 1.172-1.056-.174-2.453.898-3.492 1.678-1.08.81-1.854 2.014-2.87 2.924-1.479 1.324-3.033 1.417-3.904.276-1.053-1.381-.495-2.648.628-3.62 2.461-2.129 5.005-4.164 7.516-6.237-.344.039-.924.005-1.433.179-4.292 1.469-8.795 2.413-12.6 5.11-.516.366-1.283.541-1.929.529-1.589-.029-2.81.387-3.865 1.714-.564.71-1.671 1.156-2.612 1.366-3.104.693-5.204 2.781-7.092 5.06-.65.784-.61 2.116-.978 3.165-.317.907-.531 2.225-1.197 2.564-2.108 1.075-4.367 2.34-6.639 2.498-3.882.27-6.735 2.641-10.093 3.933-.298.115-.673.371-.76.642-1.112 3.473-4.159 5.156-6.671 7.345-.489.427-.735 1.122-1.139 1.659-1.152 1.535-2.327 3.053-3.565 4.67-.768-.47-1.273-.779-2.095-1.283-.266 2.652-.28 5.148-.818 7.525-.614 2.711-1.076 5.637-3.934 7.23-.513.286-1.058 1.006-1.098 1.561-.137 1.897-1.215 2.441-2.902 2.691-2.276.338-4.462.989-5.826 3.147-.284.449-.83.864-1.34 1.019-4.839 1.47-8.098 5.425-12.364 7.812-3.24 1.813-4.081 5.67-6.266 8.417-.301.378-.284 1.112-.222 1.66.408 3.608.84 7.214 1.32 10.813.345 2.586 1.085 5.158 1.099 7.74.026 4.654-2.648 8.023-6.692 9.078-2.511-3.809-4.87-7.705-5.606-12.311-.25-1.564-.708-3.379-.176-4.726 1.169-2.965-.266-4.774-2.052-6.627-.309-.321-.696-.567-1.021-.827-1.837.445-3.589.87-5.478 1.328-.391-.602-.772-1.14-1.104-1.708-1.26-2.154-2.969-3.202-5.375-2.604-2.481.616-5.123-.001-7.545 1.448-1.071.64-2.843.108-4.56.108 0 1.488 0 3.001 0 4.973-3.376-.516-6.433-1.208-9.519-1.387-2.757-.16-5.273-1.117-7.908-1.585-1.402-.249-3.109.518-4.519 1.171-2.471 1.143-4.718 2.819-7.247 3.776-2.844 1.076-5.002 3.082-7.482 4.64-2.351 1.478-3.185 3.866-3.121 6.483.058 2.383-.598 4.457-1.713 6.511-2.366 4.36-3.506 9.137-4.174 13.992-.241 1.75.628 3.646.419 5.409-.482 4.086 1.148 7.578 2.563 11.17.79 2.005 2.02 3.552 4.148 4.249.538.176 1.284.288 1.535.683 1.547 2.435 3.435 1.767 5.667 1.103 1.913-.569 4.045-.515 6.082-.535 6.299-.06 6.321-.014 8.784-5.873.481-1.143.889-2.367 1.035-3.59.318-2.658 1.528-4.251 4.234-5.004 3.711-1.032 7.352-2.317 11.266-1.483.922.197 2.311.654 2.494 1.28.263.902-.061 2.368-.706 3.059-1.28 1.37-1.35 2.948-1.826 4.575-1.043 3.566-2.504 7.051-4.185 10.371-.92 1.816-2.009 3.425-2.378 5.538C483.682 995.062 482.621 996.745 481.773 998.764zM540.845 839.611c1.439.635 2.954 1.14 4.298 1.935 1.96 1.161 2.09 2.437.578 4.14-.923 1.039-2.192 1.809-2.672 3.296 3.606.559 3.606.559 3.416 4.879 2.933-3.54 5.564-6.716 8.283-9.997 1.248.694 2.353 1.307 3.501 1.945 1.05-3.781.74-4.667-2.312-5.775-2.015-.732-4.117-1.279-6.222-1.701-3.185-.638-4.783-2.383-4.754-5.618.01-1.115.188-2.228.255-2.965-1.566-1.37-2.944-2.575-4.738-4.144-1.394.184-3.39.158-5.19.739-6.047 1.951-11.589 5.031-17.25 7.834.061.233.123.466.184.7 3.953-.606 7.907-1.211 11.967-1.833 2.704 1.955 3.505 2.195 7.444 1.715 3.87-.472 7.169.161 9.28 4.433-1.135 0-1.98-.063-2.811.016-1.069.101-2.127.316-3.195.475-.204-.09-.435-.293-.609-.253-4.725 1.074-9.156 2.332-12.494 6.512-2.838 3.554-4.768 7.413-6.301 11.557-.35.945-.052 2.13-.052 3.819 3.705-1.893 6.259-4.159 7.09-7.552 1.198-4.889 4.152-8.134 8.195-10.75C538.22 842.057 539.482 840.756 540.845 839.611zM546.284 861.206c3.854-.449 7.167-2.214 10.464-4.017C552.355 856.328 549.397 858.956 546.284 861.206zM387.203 817.413c.782 3.816 1.922 5.644 4.324 6.998C390.146 822.317 390.19 819.418 387.203 817.413zM557.5 1029.507c-1.329 2.422-1.329 2.422.812 4.092C559.397 1032.052 558.519 1030.887 557.5 1029.507zM542.931 861.955c.005-.088.009-.175.014-.263-.733-.052-1.466-.105-2.2-.157-.006.14-.013.28-.019.42C541.461 861.955 542.196 861.955 542.931 861.955zM1530.761 1287.551c-1.41.744-2.776 1.313-3.973 2.13-1.757 1.199-3.547 1.444-5.523.758-2.151-.747-4.297-1.514-6.471-2.191-3.31-1.031-4.177-2.223-3.855-5.765.113-1.241.527-2.453.679-3.693.209-1.711.432-3.359-1.837-4.186-.665-.243-.879-1.724-1.397-2.849-1.176.141-2.813.338-4.773.574.863-4.395 5.485-5.639 6.329-9.701-3.037 2.206-6.094 4.385-9.1 6.632-1.323.989-2.231 1.015-3.038-.385-.492-.853-.87-1.925-.848-2.888.051-2.198-.557-4.134-1.218-6.211-.625-1.966-1.692-2.74-3.296-3.458-1.843-.826-3.589-1.87-5.437-2.684-.913-.402-2.004-.813-2.939-.681-3.592.504-7.165 1.169-10.723 1.884-3.226.648-6.428 1.421-9.632 2.176-1.861.438-3.743.836-5.547 1.455-2.889.99-5.72 2.148-9.031 3.409-1.375 2.724-4.093 3.914-7.633 3.642-2.273-.175-4.559-.186-6.839-.262-3.391-.114-6.524.378-9.245 2.778-1.6 1.411-3.565 2.454-5.472 3.462-3.685 1.948-7.284.9-9.769-2.55-.632-.878-1.611-1.505-2.457-2.271-.138-1.878.802-3.153 2.269-4.26 2.909-2.194 3.482-5.777 4.96-8.81.239-.491-.202-1.306-.308-1.974-.678-4.291-1.149-8.582-.334-12.921.141-.749-.011-1.599-.209-2.356-.771-2.955-1.687-5.874-2.403-8.841-.397-1.644-.505-3.357-.721-4.878 1.315-1.699 2.561-2.133 4.204-.491-.247-1.183-.391-2.4-.761-3.544-1.004-3.101-.259-5.886 1.529-8.414 1.306-1.846 2.01-3.762 1.911-6.045-.052-1.198-.098-2.735 1.977-2.143.189.054.47.055.616-.049 2.392-1.71 5.021-3.188 7.074-5.24 1.879-1.879 3.938-2.643 6.383-2.689 1.789-.033 3.401-.216 4.539-1.818.245-.345.71-.698 1.107-.742 2.036-.225 4.064-.352 5.646-1.95.238-.241.891-.16 1.333-.096 4.281.62 7.409-1.105 9.858-4.551 1.035-1.457 2.505-2.597 3.63-4 .515-.643 1.008-1.605.933-2.366-.323-3.316 1.543-5.285 4.128-7.346 1.095 1.323 2.116 2.557 3.502 4.231.622-2.952-1.281-7.129 3.822-6.368.211-1.347.008-2.932.705-3.733.794-.912 2.391-1.124 3.888-1.742-.105-3.139 2.898-3.682 4.932-5.074.98-.671 2.286-.967 3.489-1.178.809-.142 1.941-.135 2.502.325 1.597 1.311 2.976 2.889 4.921 4.844.762.122 2.318.371 4.267.683-1.671-4.079 1.274-5.958 3.38-8.249.428-.466.677-1.093 1.048-1.616.787-1.108 1.452-2.36 2.439-3.253 1.348-1.22 2.873-2.132 4.954-1.382.972.35 2.176.06 3.128.06 1.334-2.063-.272-3.366-1.225-5.519 1.947.457 3.499.455 4.615 1.152 3.314 2.068 7.06 2.544 10.732 3.056 1.526.213 3.112.794 4.917.191 1.683-.563 3.093 2.044 2.237 3.901-.329.712-.903 1.315-1.388 1.951-1.095 1.437-2.346 2.778-3.267 4.317-.852 1.424-1.357 3.055-2.116 4.829 3.288 2.835 6.644 5.655 9.909 8.575 1.668 1.492 3.541 2.784 5.281 4.111 2.723 2.077 5.738 2.444 6.824-1.863 1.276-5.065 3.696-9.706 4.753-14.894.985-4.834 3.267-9.406 5.008-14.082.468-1.257 1.044-2.474 1.692-3.994 2.334 1.539 2.199 3.972 2.833 5.97.647 2.04 1.201 4.134 1.521 6.246.334 2.209.342 4.467.493 6.727 3.509.009 6.346 2.917 6.337 6.656-.002.682-.089 1.428.147 2.034 1.668 4.278 1.317 8.76 1.265 13.176-.028 2.405.834 3.691 2.918 4.82 1.862 1.008 3.433 2.617 4.973 4.124.588.576.783 1.587 1.063 2.431.176.529-.021 1.287.291 1.647 1.857 2.15 1.845 4.791 1.962 7.552 3.297.739 4.869 2.751 4.676 6.11-.036.624.192 1.516.632 1.872 2.547 2.063 3.158 5.223 4.664 7.867.162.284.384.534.659.912.659-.329 1.288-.643 2.417-1.206-.447 1.095-.709 1.678-.924 2.278-.453 1.263-.939 2.52-1.304 3.809-.338 1.194-.437 2.461-.821 3.637-.393 1.202-.753 2.246-.265 3.603.339.944.193 2.307-.246 3.244-2.024 4.332-4.231 8.579-6.362 12.863-.349.701-.629 1.435-.96 2.146-.431.925-.689 2.021-1.356 2.729-2.171 2.301-4.43 4.528-6.775 6.652-2.533 2.295-5.314 4.326-7.767 6.698-1.519 1.469-2.646 3.348-3.914 5.069-.403.546-.547 1.43-1.059 1.726-4.507 2.603-5.897 7.682-9.048 11.36-1.14 1.331-2.292 2.104-3.863 2.47-.663.155-1.352.214-2.033.272-3.248.281-5.97 1.623-8.726 3.407C1534.933 1293.548 1535.685 1292.63 1530.761 1287.551zM825.457 719.437c.748.608 1.497 1.216 2.805 2.279-5.938 2.193-10.943 5.215-16.567 6.36-5.494 1.119-10.955 3.14-17.114 2.164-2.841 2.036-5.773 4.714-9.189 6.43-3.719 1.869-7.855 2.952-11.88 4.138-1.017.299-2.303-.317-3.969-.597-1.363 1.591-3.67 2.276-6.299 2.132-1.859-.102-3.327.796-4.451 2.171-1.08 1.322-2.186 2.677-2.964 4.182-1.707 3.297-4.083 5.743-7.861 6.802-.545 5.576-5.249 7.973-8.642 11.339-1.458 1.446-4.491.918-6.021-1.158-2.254-3.06-5.023-3.642-8.381-2.618-1.19.363-2.203.027-2.675-.914-2.323-4.632-5.452-9-5.176-14.557.034-.68.218-1.357.209-2.034-.015-1.085.082-2.24-.25-3.238-1.009-3.033-1.021-6.055.178-8.948 1.435-3.462 4-5.709 7.84-6.419 1.593-.294 3.528-.159 4.337-2.023-.055-2.553-3.463-3.533-2.729-6.79 2.073.111 4.145.221 6.304.336.323-2.855-1.932-3.078-3.46-3.508-1.68-.473-3.545-.293-5.159-.388-.882-1.927.058-3.18.681-4.506 2.046-4.35 1.413-8.147-1.713-11.657-1.242-1.395-2.785-1.939-4.474-2.23-5.516-.953-11.027-1.655-16.65-.653-2.615.466-5.232-.059-7.617-1.359-1.13-.616-2.096-1.223-1.744-2.9.151-.721-.549-1.618-.851-2.439-.288-.784-.562-1.574-1.028-2.887 4.666-.528 8.837-.898 12.974-1.498 4.041-.587 8.047-1.41 12.238-2.159-.088-.922-.157-1.652-.245-2.57.849-.316 1.653-.739 2.508-.912 5.561-1.123 11.274-1.738 16.658-3.414 4.794-1.493 9.537-1.973 14.446-1.947.668.004 1.338-.255 2.007-.39 4.116-.831 8.212-1.092 12.465-1.068 8.513.049 17.089-.177 25.5-1.962 6.644-1.41 13.323-1.28 20.062-.76 2.548.197 5.181-.528 7.76-.929 10.762-1.673 21.344-.925 31.738 2.324 1.658.518 1.635.591 2.059 2.042 4.668.272 9.202.595 13.742.781 3.158.13 6.325.047 9.486.123.623.015 1.238.326 2.408.656-.879.806-1.315 1.505-1.918 1.707-2.473.829-4.955 1.756-7.512 2.178-3.311.547-6.378 1.629-9.377 3.048-1.123.531-2.362.826-3.469 1.384-1.285.646-2.511 1.423-3.712 2.218-1.02.676-1.97 1.458-3.015 2.242 1.138 1.157 3.53 1.407 2.834 3.761-.574 1.943-2.441 1.757-3.939 2.135-.423.107-.843.231-1.196.328-.082.358-.247.653-.163.768 1.976 2.735 1.686 4.724-.925 7.285-3.445 3.378-6.793 5.987-11.897 5.898-2.321-.04-4.658.793-7.902 1.401 1.307 1.037 1.883 1.613 2.564 2.009 1.079.627 2.29 1.038 3.333 1.714 1.815 1.176 2.399 2.953 2.122 5.06-.189 1.437-.851 2.324-2.426 2.269-1.596-.055-3.193-.096-4.791-.142-.865-1.203-1.253-2.908-3.296-3.082-.316.707-.621 1.391-1.044 2.337C822.661 719.028 824.059 719.233 825.457 719.437zM1579.56 1112.618c3.55 1.764 7.54 2.159 9.382 6.493-1.389.805-2.698 1.563-4.17 2.416.281.584.481 1.08.746 1.539 1.46 2.538 3.94 4.393 4.839 7.334.156.51 1.139 1.259 1.477 1.141 2.344-.818 2.293.704 3.047 2.254.769 1.582 2.693 2.635 4.191 3.819.843.666 1.784 1.267 1.346 2.468-.496 1.361-1.802 1.147-2.923 1.143-.334-.001-.771-.033-.985-.235-2.384-2.261-5.244-2.05-8.259-2.061-2.594-.009-4.505-1.978-5.984-4.098-.586-.84-1.357-1.695-1.545-2.642-.83-4.173-4.395-5.066-7.509-6.501-1.552-.715-2.943-.22-3.962 1.041-.918 1.136-1.817 2.341-2.439 3.652-1.052 2.218-2.811 3.038-5.099 3.466-4.234.791-7.205-1.241-9.914-4.022-.708-.727-1.32-1.547-1.903-2.238-3.568-.727-6.144 3.825-9.918 1.407-.211-3.091 1.381-5.269 4.128-7.254-.887-2.448-1.715-5.035-2.784-7.518-.374-.868-1.214-1.745-2.064-2.157-2.455-1.19-4.958-2.373-7.567-3.129-2.575-.746-4.891-1.75-6.94-3.488-.806-.683-1.881-1.049-2.423-1.339-1.324 1.202-2.171 2.615-3.205 2.769-1.92.285-1.982-1.805-2.616-3.061-.76-1.503-1.481-3.026-2.232-4.57 2.142-.84 4.178-1.638 6.215-2.437-.053-.23-.107-.459-.16-.689-.854 0-1.708.012-2.561-.003-1.465-.025-2.695-.468-3.339-1.926-.684-1.547-1.953-2.106-3.564-2.204-1.812-.111-2.88-1.066-3.147-2.729 2.579-1.002 4.96-1.89 7.311-2.852 2.719-1.112 5.13-.587 7.329 1.242.958.797 1.89 1.624 2.933 2.522-.192 4.135 1.404 7.596 4.657 10.77.794-1.007 1.441-1.763 2.011-2.571.459-.65.663-1.607 1.262-2.009 2.552-1.715 5.156-3.375 7.869-4.814.605-.321 1.762.239 2.604.554 3.2 1.2 6.351 2.533 9.566 3.691 4.905 1.766 9.946 3.192 14.734 5.225 2.629 1.117 4.873 3.157 7.255 4.832.643.452 1.12 1.135 1.734 1.637C1578.707 1108.9 1580.347 1110.336 1579.56 1112.618zM1453.504 1079.304c-1.862.442-3.229.766-4.962 1.177-.996.894-1.462 2.363-1.318 4.027.195 2.254-.408 3.923-2.633 5.014-2.335 1.146-3.617 3.021-2.802 5.843.174.602.212 1.542-.133 1.944-1.654 1.927-1.632 4.106-1.087 6.312-2.596.959-4.983 1.841-7.568 2.797-.69-1.166-1.31-2.215-2.049-3.465-1.536-.535-3.998.785-4.56-1.887-2.396.982-4.428 1.815-6.508 2.667-.863-1.09-1.475-1.864-2.139-2.703-.906.088-1.806.291-2.692.239-2.114-.124-2.842-.852-3.438-3.036-.508-1.863-1.056-3.715-1.629-5.559-.162-.522-.342-1.257-.735-1.454-2.425-1.216-2.236-3.474-2.407-5.607-.091-1.128.131-2.406-.328-3.355-1.332-2.757-.686-5.063 1.072-7.29.347-.44.624-.935 1.077-1.622 2.12.29 4.33.593 6.45.883.305-.34.554-.489.584-.672.675-4.147 3.251-6.121 7.29-6.573 1.858-.208 2.942-1.404 3.712-3.116 1.37-3.048 3.303-5.643 6.529-7.04 2.385-1.033 3.995-2.831 5.238-5.141 1.11-2.064 2.639-3.904 3.981-5.838.585.277 1.012.337 1.161.572 2.224 3.526 5.337 5.845 9.179 7.464 2.211.932 2.091 2.413.023 3.749-.468.303-1.004.501-1.599.791.569 1.76.307 2.941-1.776 3.214-1.665.218-2.195 1.241-1.755 2.954.466 1.812.613 3.672 1.107 5.52C1449.673 1073.409 1451.295 1076.178 1453.504 1079.304z"/><path fill="#333349" d="M1123.9 1148.465c1.682 2.673 2.857 5.587 3.612 8.673.458 1.873.891 3.769 1.107 5.681.232 2.059 1.007 4.364-1.825 5.564-.451.191-.679 1.38-.666 2.101.028 1.65-.216 3.155-1.213 4.522-.319.437-.592 1.027-.601 1.552-.108 6.111-3.209 11.298-5.152 16.839-1.732 4.939-3.509 9.863-5.288 14.786-1.001 2.771-2.042 5.528-3.079 8.286-.119.316-.307.615-.508.889-.984 1.341-7.693 3.737-9.332 3.345-3.925-.939-6.647-3.699-7.227-7.34-.107-.673-.264-1.353-.253-2.027.04-2.611-.213-5.134-1.024-7.669-.617-1.929.343-3.754 1.465-5.433 1.132-1.694 2.148-3.475 3.107-5.275 1.219-2.29 1.497-4.654.861-7.265-.532-2.186-.974-4.586-.61-6.749.44-2.619 1.452-5.285 2.843-7.545.753-1.225 2.765-1.749 4.288-2.406 1.662-.716 3.513-1.031 5.109-1.854 3.604-1.859 5.616-5.191 7.348-8.68.66-1.329 1.161-2.63 2.59-3.471.73-.43 1.084-1.569 1.504-2.437.67-1.383 1.254-2.808 1.874-4.215C1123.187 1148.378 1123.544 1148.421 1123.9 1148.465zM510.475 712.857c-3.489.949-7.38 1.79-11.107 3.095-2.674.936-4.663-.043-6.54-1.499-1.666-1.292-1.471-3.152.41-4.183 2.489-1.364 5.109-2.49 7.67-3.723 2.148-1.034 4.29-2.084 6.442-3.111.711-.339 1.421-.803 2.174-.91 3.709-.526 7.429-.997 11.156-1.372.723-.073 1.622.19 2.224.608 1.724 1.198 3.422 1.389 5.488.886 3.989-.972 4.915-.343 6.698 3.627.275.613.652 1.181.794 1.432 2.744.372 5.258.729 7.778 1.04.529.065 1.118.074 1.614-.089 3.659-1.199 4.359-.945 5.979 2.272 1.341-1.186 2.671-2.401 4.048-3.56.516-.435 1.115-.79 1.719-1.097 2.054-1.044 3.749-.167 5.336 1.093 1.566 1.243.844 2.665.206 4.011-.865 1.824-1.815 3.608-2.857 5.663 1.189.726 2.329 1.23 3.21 2.023.68.613 1.518 1.669 1.399 2.38-.122.727-1.269 1.716-2.062 1.813-2.04.248-3.575.961-4.893 2.598-.544.676-1.834.979-2.811 1.039-3.401.212-6.891.654-10.091-.926-3.389-1.673-6.702-.558-9.974.107-4.708.957-9.386 1.882-14.227 1.599-1.361-.08-2.569-.123-3.817-1.025-1.024-.74-2.579-.758-3.905-1.067-2.641-.615-2.868-.786-4.441-3.798 1.27-.757 2.563-1.528 4.105-2.447C510.169 717.688 513.98 715.038 510.475 712.857zM632.133 694.596c-.419-2.174 1.104-2.547 2.106-2.99 1.529-.677 3.206-1.085 4.86-1.402 2.014-.385 3.996-.572 5.621-2.146.624-.605 1.873-.727 2.852-.777 7.069-.361 7.7-.536 13.613-4.327-.536-2.049-.536-2.049 1.344-4.035-3.183-1.243-7.16-.469-9.814-4.228 1.586-.188 2.764-.331 3.943-.468 2.251-.261 4.526-.39 6.749-.802 7.932-1.47 15.809-3.388 23.893-3.721 3.838-.158 7.738.221 11.556.75 5.691.789 11.337.761 17.017.069 5.574-.679 11.141-.817 16.637.638.546.145 1.081.354 1.593.593.153.071.211.345.432.736-.959.324-1.866.695-2.806.935-2.751.703-5.516 1.352-8.274 2.027-4.969 1.217-9.951 2.384-14.901 3.676-3.632.948-7.2 2.14-10.835 3.073-1.858.477-3.822.526-5.7.942-2.877.637-5.736 1.374-8.576 2.162-3.28.91-6.539 1.898-9.793 2.899-2.062.634-4.109 1.322-6.136 2.059-.502.182-1.138.558-1.308 1.001-.912 2.381-2.992 2.623-5.032 2.801-2.153.188-4.391.523-6.476.147-3.915-.707-7.696-.068-11.534.343C639.461 694.949 635.758 694.798 632.133 694.596zM1381.88 1087.669c2.427.074 3.296 1.347 3.564 3.465.272 2.157 1.599 3.802 3.661 4.605 2.639 1.028 3.077 3.417 3.018 5.584-.115 4.248-.756 8.482-1.171 12.638-1.628.558-3.033 1.201-4.507 1.478-.734.138-1.995-.138-2.334-.665-3.285-5.11-8.845-8.196-11.891-13.518-.715-1.249-1.99-2.165-2.909-3.313-.775-.967-1.62-1.964-2.066-3.093-1.678-4.251-3.485-8.371-7.167-11.367-.432-.352-.433-1.229-.644-1.859-.612-1.833-1.199-3.676-1.853-5.494-.661-1.839-1.294-3.658-3.805-3.788-.533-.028-1.267-1-1.471-1.671-.8-2.628-2.406-4.536-4.514-6.25-2.016-1.639-3.775-3.604-5.564-5.503-.521-.554-.915-1.336-1.098-2.08-.59-2.392.38-3.289 2.814-2.814 1.669.325 3.356.557 5.039.807 2.518.373 4.406 1.65 5.836 3.759.684 1.01 1.601 1.869 2.457 2.752 2.605 2.686 5.319 5.273 7.814 8.057 1.191 1.329 2.308 2.344 4.181 2.632.977.151 1.871 1.087 2.715 1.776.782.639 1.348 1.576 2.184 2.109 2.268 1.444 4.426 2.849 6.2 5.043 1.201 1.485 1.837 2.731 1.67 4.515C1381.986 1086.037 1381.956 1086.604 1381.88 1087.669zM1487.392 907.981c-.171 1.798-.567 3.609-.461 5.391.155 2.594-1.073 3.996-3.386 5.047-1.504-1.805-4.122-2.68-3.544-5.789.093-.501-.783-1.291-1.354-1.78-.682-.584-1.536-.96-2.282-1.476-1.355-.935-1.649-2.034-.618-3.466 1.15-1.597 2.141-3.209 2.935-5.117 1.068-2.565 3.675-4.534 5.789-6.585.527-.511 1.695-.388 2.576-.504 1.567-.205 3.141-.36 4.71-.556 1.506-.188 3.01-.402 4.314-.578.762-2.405 1.58-4.988 2.516-7.943 1.047.728 1.645 1.144 2.244 1.56 3.014-1.357 4.754-4.223 4.8-7.329.058-3.875-1.372-7.31-2.9-10.707-.768-1.709-.662-2.936.738-4.254 1.17-1.101 2.165-1.105 3.288-.152 3.873 3.287 7.131 6.902 7.816 12.301.2 1.575 1.728 2.969.525 4.751-.117.174.129.64.279.933.153.301.525.533.578.834.705 3.996 2.711 7.729 2.511 11.887-.043.885-.556 1.989-1.227 2.505-.355.273-1.515-.501-2.536-.887-.724.932-1.05 2.986-3.248 2.151-.219-.083-.774.174-.872.402-1.035 2.426-2.848 1.701-4.729 1.05-.884 1.503-1.68 2.988-2.601 4.391-1.109 1.689-2.112 1.936-3.622.574-1.301-1.174-2.27-2.716-3.241-4.295-3.102-1.592-6.347-.663-8.723 1.309-1.747 1.451-3.167 1.837-5.145 1.566-.542-.074-1.113.068-1.89.63 1.917.982 3.833 1.963 5.749 2.945C1486.718 907.188 1487.055 907.584 1487.392 907.981zM894.48 782.645c-.361.45-.532.77-.794.974-2.708 2.112-2.722 2.361-.502 4.951.664.775 1.543 1.589 1.727 2.505.416 2.069 1.579 3.237 3.215 4.487 1.16.887 1.786 2.796 2.118 4.362.399 1.88 1.472 2.568 3.098 3.142 3.484 1.229 3.711 2.759.937 5.296-.644.589-1.295 1.17-1.844 1.665 1.017.9 2.568 1.643 2.58 2.411.028 1.811-1.841 1.686-3.133 1.839-4.403.523-8.828.866-13.221 1.458-1.879.253-3.781.755-5.521 1.499-1.971.843-3.887 1.184-5.963.734.337-2.629 2.991-5.032 7.618-7.311-.992-.155-2.011-.216-2.968-.493-.796-.231-1.937-.537-2.186-1.124-.535-1.257.752-1.676 1.634-2.151.391-.21.826-.337 1.529-.616-.571-.951-1.064-1.771-1.691-2.814.515-.445 1.01-1.118 1.67-1.385 1.038-.419 2.231-.448 3.279-.851 2.085-.801 2.393-2.09 1.066-3.947-.395-.552-.892-1.045-1.205-1.638-.248-.471-.286-1.053-.443-1.693-4.215.8-6.107-2.289-8.51-4.885.36-.854.747-1.775 1.147-2.723-.65-1.59-1.321-3.232-1.892-4.63 2.075-2.462 3.979-4.72 5.891-6.988 6.048-.494 6.086-.486 7.832 1.591-.548.367-1.073.725-1.605 1.072-.452.296-.911.58-1.616 1.027 2.071 1.584 4.089.018 6.238.425C893.457 780.071 893.987 781.404 894.48 782.645zM1463.366 1090.407c.629-.954 1.108-1.68 1.586-2.408.213-.075.439-.235.639-.207 2.13.306 4.222.666 6.315-.374.928-.461 2.318-.479 2.522.8.112.707-.718 1.828-1.427 2.349-2 1.472-4.157 2.731-6.334 4.126 1.766 3.958 3.482 7.803 5.222 11.703-.22 2.067-.456 4.291-.693 6.519-2.621-1.323-2.621-1.323-1.9-4.872-1.412.849-2.485 1.493-3.605 2.167-1.612-.225-2.156-1.332-2.385-2.826-.37-2.418-.832-4.823-1.297-7.225-.057-.295-.377-.54-.561-.788-1.578-.043-1.879.896-1.375 2.008 1.666 3.674-.051 7.129-.554 10.659-.077.539-.327 1.102-.643 1.55-.769 1.089-1.992 1.368-3.013.739-.578-.357-.964-1.487-.945-2.257.044-1.797.451-3.582.584-5.381.104-1.42-.347-2.508-1.711-3.406-2.115-1.392-2.215-3.725-.845-5.922.684-1.098 1.148-2.406 1.406-3.681.625-3.09 1.369-6.137 1.681-9.324.214-2.191 1.557-4.761 4.332-5.671.847-.278 6.42-1.324 7.37-1.218 2.26.253 4.534.389 6.784.706 1.557.219 2.664-.443 3.625-1.482.456-.494.645-1.298 1.165-1.654.675-.461 1.697-1.023 2.325-.813 1.123.377 1.083 1.495.721 2.598-1.518 4.616-5.017 6.649-9.749 6.016-3.018-.404-6.105-.321-9.162-.402-1.259-.033-2.904-.067-3.13 1.409-.225 1.464.113 3.134.643 4.549C1461.253 1089.195 1462.433 1089.668 1463.366 1090.407zM1645.233 1301.992c1.175-.327 2.143-.597 3.103-.865.771 2.493-.263 5.279-2.808 7.341-2.209 1.79-4.523 3.45-6.793 5.164-.363.274-.83.458-1.1.802-3.076 3.918-7.596 4.741-12.07 5.546-1.449.261-2.388.906-3.436 1.888-4.499 4.214-9.529 7.668-15.345 9.864-.212.08-.44.182-.656.174-3.481-.127-6.942-.369-10.43-1.815.97-2.478 2.495-3.918 4.563-5.059 3.939-2.173 7.712-4.648 11.661-6.801 2.079-1.133 4.309-2.196 6.6-2.689 5.843-1.257 10.293-4.627 14.372-8.694.319-.318.496-.916.855-1.035 2.975-.983 5.108-3.12 7.433-5.061C1642.52 1299.635 1643.659 1300.138 1645.233 1301.992zM1668.112 1278.993c.807.133 1.667.274 2.704.445.046.698.171 1.347.115 1.98-.275 3.125 1.402 4.436 4.266 3.26 1.359-.558 2.68-1.426 4.325.051-.232.622-.292 1.546-.784 1.971-2.698 2.33-4.97 5.298-8.789 6.032-1.637.315-2.737 1.222-3.553 2.842-2.725 5.412-7.817 7.728-13.211 9.527-.375.125-.863-.087-1.321-.145-.467-1.915.99-2.764 1.857-3.861 2.114-2.675 2.146-2.664-.107-5.412-.793-.967-.813-1.918.146-2.688.694-.557 1.531-.978 2.363-1.314 4.986-2.015 6.79-6.153 7.105-11.059.181-2.816-.189-5.67-.365-8.504-.115-1.853.293-2.959 2.194-5.046 1.448 1.545 2.969 3.008 4.265 4.65.395.5.345 1.527.191 2.248C1669.164 1275.611 1668.623 1277.212 1668.112 1278.993zM822.7 748.549c.581-.355 1.162-.711 1.954-1.196-.949-.657-1.761-1.22-2.637-1.827 1.059-1.216 1.781-2.045 2.553-2.932-2.087-2.245-4.524.881-6.456-.75 2.564-5.42 8.432-6.092 12.195-1.06 1.27-2.055 2.981-2.615 5.187-1.553.472.227 1.256-.263 1.906-.328 1.901-.188 3.809-.303 5.709-.498.874-.09 1.765-.207 2.599-.47 3.804-1.2 7.444.014 9.353 3.393.349.618.236 2.052-.233 2.47-1.319 1.177-2.829 2.292-4.459 2.935-2.843 1.121-5.838 1.852-8.756 2.789-.745.239-1.496.548-2.146.975-2.051 1.347-4.129 1.53-6.516.856-2.169-.612-4.482-.703-6.724-1.067-1.061-.172-2.106-.446-3.159-.673C822.948 749.259 822.824 748.904 822.7 748.549zM1426.488 1123.428c1.474.779 2.881 1.613 4.366 2.273.793.352 1.724.389 2.586.594.859.204 1.817.275 2.523.729.402.259.643 1.246.485 1.76-.15.488-.921 1.122-1.409 1.114-2.781-.046-5.592.909-8.363-.358-.742-.339-1.794-.088-2.69.01-4.756.518-9.245-.178-13.617-2.265-1.986-.948-4.312-1.269-6.522-1.643-3.566-.603-7.139-.935-10.177-3.317-1.081-.847-2.707-.998-4.43-1.584.49-1.182.835-2.228 1.341-3.188 1.174-2.227 2.029-2.504 4.407-1.87 1.632.435 3.324.64 4.967 1.038.975.236 2.222.373 2.802 1.033 2.107 2.397 4.87 2.002 7.526 2.116.526.023 1.341-.135 1.554-.49 1.259-2.098 2.809-1.331 4.423-.637 2.569 1.103 5.197 1.623 7.975.787.526-.158 1.143-.139 1.696-.056 1.028.155 2.016.417 2.247 1.7.228 1.269-.731 1.483-1.537 1.883C1426.507 1123.121 1426.49 1123.422 1426.488 1123.428zM535.762 974.198c-2.194-1.181-4.593-1.697-5.468-4.148-3.298-.784-5.844-3.457-9.478-3.558-1.607-.045-3.241-.826-4.772-1.486-1.71-.737-3.248-.622-4.904.141-2.558 1.178-5.18 2.218-8.242 3.514.121-1.177-.014-1.907.278-2.359 1.665-2.571 3.918-4.415 6.957-5.171 1.106-.275 2.223-.521 3.306-.87 2.92-.94 5.814-.823 8.746-.024 3.594.979 6.717 3.118 10.373 4.022 1.412.349 2.732 1.696 3.752 2.883 2.541 2.953 6.156 4.171 9.306 6.134 1.448.903 3.008 1.632 4.427 2.575 1.307.869 1.264 1.709.012 2.673-1.999 1.54-4.111 1.996-6.288.407-1.609-1.175-3.275-1.304-5.164-.815-3.012.78-3.428.354-3.015-2.697C535.634 975.094 535.682 974.767 535.762 974.198zM1473.334 1015.775c-1.066-.574-2.1-1.223-3.208-1.703-1.227-.531-2.524-.899-3.784-1.355-.517-.187-1.129-.301-1.507-.653-1.638-1.524-3.303-2.822-5.744-1.929-.196.072-.464.022-.676-.044-.317-.1-.797-.189-.891-.414-1.229-2.945-5.769-2.658-6.189-6.343-.167-1.463-.256-2.936-.34-4.406-.019-.327.025-.762.223-.981 2.681-2.963 1.583-6.412 1.166-9.702-.354-2.79.128-3.603 2.948-3.358 1.675.145 3.319.646 5.163 1.025.831 2.21 1.913 4.477 2.505 6.865.431 1.735.088 3.552-1.139 5.124-1.658 2.125-1.761 6.504-.157 8.525.443.558 1.626 1.06 2.234.863 2.886-.936 5.033.916 7.458 1.696.201.065.456.236.52.416.693 1.966 1.353 3.943 2.022 5.917C1473.736 1015.469 1473.535 1015.622 1473.334 1015.775zM1502.479 857.984c1.078 4.461 1.078 4.461-2.237 5.265-1.242-1.638-2.484-3.186-3.612-4.814-.357-.516-.547-1.237-.572-1.874-.043-1.125.101-2.257.18-3.63.905-.111 1.855-.228 2.974-.366-.568-3.709-2.584-6.69-4.99-10.36 1.549.238 2.526.199 3.339.546 3.55 1.512 7.04 3.164 10.575 4.711 3.18 1.392 3.193 1.362 6 .638 1.325 1.687 2.658 3.326 3.923 5.014.833 1.112.277 2.637-1.118 2.892-.981.179-2.021.035-3.158.035-.352.826-.705 1.519-.941 2.249-.235.726-.352 1.49-.545 2.344C1508.724 860.908 1506.125 858.146 1502.479 857.984z"/><path fill="#333349" d="M862.1 803.222c-.973-1.373-1.687-2.141-2.124-3.044-1.159-2.396.009-4.357 2.677-4.348 2.121.007 3.875-.15 4.381-2.724.103-.523.866-1.045 1.442-1.326 2.813-1.37 5.617-.869 8.192.549 2.484 1.368 2.632 4.156.276 5.757-1.244.845-1.466 1.76-1.642 3.073-.207 1.539-.878 3.011-1.253 4.535-.296 1.202-1.044 1.75-2.199 1.731-2.648-.044-4.862 1.068-6.974 2.493-.283.191-.569.386-.875.534-3.048 1.475-5.62.211-6.216-3.191-.1-.569.466-1.45.979-1.889C859.672 804.598 860.776 804.053 862.1 803.222zM1472.844 1037.135c1.174.676 2.335 1.345 3.637 2.095 1.884-2.837 3.661-5.657 6.811-7.659 2.442 4.177 4.039 8.238 4.185 12.736.038 1.159.299 2.964-2.023 2.786-.343-.026-1.041 1.055-1.111 1.677-.209 1.845-.187 3.716-.259 5.702-5.968-1.831-7.347-1.663-9.19-9.803-.704-.031-1.474-.006-2.224-.116-.654-.097-1.285-.347-1.819-.499-1.218.967-2.39 1.899-4.188 3.327-.232-1.571-.628-2.456-.408-3.143.435-1.361.956-2.859 1.911-3.847C1469.371 1039.142 1471.045 1038.347 1472.844 1037.135zM654.386 695.648c.476 3.783-2.187 4.925-4.316 5.713-3.612 1.336-7.493 2.111-11.406 1.498-6.184-.969-12.306-2.355-18.644-2.005-1.088.06-2.219-.651-3.95-1.205 1.123-.947 1.698-1.402 2.237-1.894.716-.653 1.69-1.209 2.055-2.028 1.359-3.045 6.024-3.858 8.391-1.294 1.236 1.339 2.594 1.773 4.232 1.715 4.772-.17 9.541-.432 14.313-.575C649.641 695.502 651.988 695.616 654.386 695.648zM538.54 699.278c2.504-3.323 5.699-4.151 8.863-5.01 3.836-1.041 7.676-2.026 11.087 1.168.316.296.847.347 1.228.589 2.616 1.662 4.873 1.423 6.739-1.187 1.472-2.06 3.703-1.197 5.751-1.611.314.852.579 1.573.917 2.49 1.452 0 2.987 0 4.759 0-.716 2.633-2.009 4.27-4.547 4.694-.785.131-1.582.311-2.369.287-7.382-.225-14.717 1.735-22.131.411-2.554-.456-5.169-.563-7.745-.914C540.363 700.096 539.676 699.698 538.54 699.278zM1537.838 1300.804c-.574 1.807-.664 3.013-1.273 3.837-2.09 2.833-4.088 5.83-6.65 8.19-2.104 1.938-4.743 3.541-7.79 3.904-1.929.23-2.887-.324-3.285-2.131-.376-1.707-1.009-3.428.262-5.221.657-.927.602-2.354.882-3.552.226-.968.224-2.1.749-2.868 2.554-3.731 2.45-3.601 5.893-1.999 1.029.479 2.394.347 3.599.311C1532.471 1301.209 1534.713 1301.007 1537.838 1300.804zM630.058 681.408c4.571-1.694 8.934-3.687 13.509-4.839 2.1-.529 4.708.317 6.916 1.052 2.003.667 3.806 1.978 5.627 3.117.499.313 1.133 1.138 1.021 1.532-.173.606-.873 1.379-1.463 1.494-2.782.543-5.617.809-8.406 1.323-2.667.492-5.293 1.197-7.95 1.749-.994.207-2.021.334-3.035.349C632.289 687.247 630.932 686.065 630.058 681.408zM548.45 986.06c2.027-3.103 5.541-.803 7.799-2.456 1.085-2.502-2.568-3.256-2.084-5.811 1.398.09 2.717.132 4.027.271 1.781.188 3.537.658 5.336-.017.486-.182 1.308-.197 1.654.093 2.835 2.376 6.775 2.432 9.648 4.679.44.344 1.047.696 1.176 1.157.16.57.123 1.467-.231 1.842-.447.473-1.524.973-1.942.746-1.838-.998-3.415-.711-5.128.273-.627.36-1.554.187-2.342.278-.783.091-1.766-.055-2.31.361-2.274 1.741-4.671 1.283-7.148.774-2.331-.479-4.692-.812-7.023-1.291C549.392 986.858 548.973 986.399 548.45 986.06zM574.193 708.202c1.513-.08 2.946-.156 4.481-.237.253-.811.43-1.441.645-2.057.531-1.518 1.552-2.568 3.193-2.636 3.288-.136 6.582-.158 9.874-.176.396-.002.795.312 1.04.415.155.294.281.435.251.489-1.32 2.355-2.165 4.951-3.52 7.263-.564.962-1.87 1.584-2.957 2.121-1.413.697-2.933 1.187-4.427 1.709-2.982 1.041-7.614-.307-9.501-2.811C571.983 710.568 573.155 709.357 574.193 708.202zM1269.165 1032.224c2.553 1.088 4.155 2.589 5.236 4.709.566 1.11 1.147 2.269 1.97 3.182 2.012 2.233 2.329 4.872 2.151 7.668-.175 2.751-4.725 6.282-7.412 5.652-.631-.148-1.348-.871-1.611-1.503-1.906-4.567-3.061-9.244-1.661-14.219C1268.317 1036.007 1268.675 1034.267 1269.165 1032.224zM594.551 711.98c-.165-2.866.924-4.464 2.477-5.621 1.802-1.341 3.808-2.418 5.773-3.527.45-.254 1.105-.279 1.644-.219 3.365.37 6.726.781 10.083 1.214.511.066.998.319 1.424.462 0 .351.046.524-.007.563-3.221 2.367-6.134 5.381-10.587 5.235-2.293-.075-4.471.167-6.612 1.174C597.618 711.793 596.206 711.722 594.551 711.98zM1450.748 966.451c-4.443-2.556-5.854-5.637-4.927-9.917.337-1.556.57-3.141 1.007-4.667.561-1.956 2.635-3.022 4.597-2.506 1.843.485 2.712 2.165 2.282 4.336-.615 3.104-1.167 6.22-1.823 9.315C1451.656 964.087 1451.198 965.112 1450.748 966.451zM526.033 694.843c4.36-4.184 22.056-6.625 26.427-3.569-.75.432-1.351.98-2.041 1.138-2.664.612-5.362 1.074-8.037 1.641-1.768.375-3.57.69-5.266 1.287-3.366 1.185-6.721.993-10.104.26C526.656 695.523 526.372 695.115 526.033 694.843zM1590.188 1113.605c1.309-.168 1.958-.31 2.611-.324 2.574-.056 5.15-.058 7.724-.118.44-.01 1.007-.072 1.289-.344.966-.932 1.886-1.926 2.719-2.979.783-.989 1.435-2.082 2.295-3.353 2.831-.037 3.599 1.017 2.186 3.665-1.57 2.943-3.355 5.763-6.667 6.981-3.438 1.264-6.919 1.179-10.131-.7C1591.417 1115.967 1591.022 1114.812 1590.188 1113.605zM1489.982 1128.525c-.165 2.031-1.459 2.412-2.536 2.933-1.533.741-3.187 1.255-4.658 2.095-1.951 1.115-3.882 2.319-5.621 3.731-1.495 1.214-2.893 2.218-4.908 1.567-.685-3.289.251-4.799 3.217-5.79 1.994-.667 4.082-1.184 5.282-3.366.945-1.718 2.738-2.34 4.727-2.018C1486.921 1127.91 1488.345 1128.213 1489.982 1128.525zM1403.688 976.341c3.401.465 4.286 1.528 3.555 4.603-.235.987-.594 1.953-.978 2.895-.816 2.002-2.438 2.929-4.881 2.781-2.222-.135-2.899-1.967-3.629-3.585-.754-1.672-.373-3.592 1.127-4.568C1400.33 977.523 1402.074 977.031 1403.688 976.341zM600.277 692.655c1.465.088 2.959.031 4.386.311 1.046.206 1.634 1.353.67 2.008-2.947 2.003-5.666 4.61-9.602 4.57-.453-.005-.979.143-1.345-.036-1.15-.564-2.476-1.044-3.28-1.955-.664-.752.76-3.28 2.224-3.73 2.229-.685 4.568-1.011 6.86-1.489C600.218 692.441 600.247 692.548 600.277 692.655zM936.97 863.432c2.33 3.194 2.163 6.625 2.039 9.995-.051 1.395-2.911 3.453-4.307 3.094-.653-.168-1.483-1.098-1.567-1.766-.323-2.565-.456-5.162-.473-7.749-.004-.635.56-1.456 1.107-1.87C934.651 864.469 935.734 864.068 936.97 863.432zM1473.917 1018.784c.161-.683.105-1.739.521-1.98 1.428-.826 4.912.469 5.526 1.995.668 1.662 1.143 3.402 1.749 5.251-.966.462-1.634.781-2.321 1.11.053 2.055 2.573 4.085.066 6.334-2.919-2.977-5.132-5.952-3.123-10.727-.712-.573-1.582-1.272-2.451-1.971C1473.883 1018.798 1473.917 1018.784 1473.917 1018.784zM1448.528 1130.873c-2.385 2.859-5.148 2.913-7.554.375-1.121.154-2.148.296-3.924.54.658-1.982 1.093-3.289 1.619-4.874 1.182.374 2.406.392 2.967 1.012 1.278 1.412 2.873 1.263 3.986.569 1.959-1.223 3.948-.675 5.928-.805 1.032-.068 2.002.435 1.705 1.526-.219.805-1.046 1.724-1.82 2.018C1450.698 1131.513 1449.678 1131.049 1448.528 1130.873zM563.19 725.564c2.961-1.273 5.251-2.488 7.683-3.249 3.548-1.111 5.099-.337 7.487 3.111C575.587 728.428 568.827 728.697 563.19 725.564zM1487.392 907.981c-.337-.396-.674-.793-1.01-1.189.073-2.986.647-3.737 3.12-4.762 1.732-.718 3.369-2.095 5.237-.509.63.535 1.448 1.435 1.372 2.071-.104.874-.85 2.2-1.548 2.363-1.465.343-2.387 1.162-3.338 2.15C1489.933 909.446 1488.681 907.77 1487.392 907.981zM606.485 688.174c-2.058-.547-4.148-1-6.163-1.677-1.243-.418-2.344-1.469-1.745-2.819.349-.788 1.615-1.313 2.575-1.64.685-.233 1.587-.072 2.324.145 1.812.534 3.628 1.102 5.354 1.858.83.364 1.98 1.117 2.071 1.813.177 1.358-1.291 1.651-2.329 1.969-.617.189-1.34.035-2.015.035C606.533 687.964 606.509 688.069 606.485 688.174zM1469.362 1025.847c.89-.557 1.754-1.165 2.681-1.651.545-.286 1.34-.678 1.751-.475.443.22.771 1.07.8 1.662.158 3.341-1.589 6.012-3.066 8.742-3.542-.756-4.019-1.463-3.162-4.447.374-1.303.726-2.613 1.087-3.92C1469.453 1025.759 1469.362 1025.847 1469.362 1025.847zM1494.101 1082.787c-1.233-2.676-.848-5.263-.417-7.798.097-.57.994-1.005 1.747-1.712.569 1.213.979 2.087 1.414 3.014.676-.424 1.331-.834 1.972-1.236 1.853 2.065 1.976 2.678.29 4.14C1497.594 1080.506 1495.85 1081.55 1494.101 1082.787zM1721.92 1175.668c.611 1.609 1.235 2.728 1.414 3.914.108.715-.25 1.817-.793 2.25-1.243.991-4.402.596-5.298-.675-.586-.831-1.067-2.094-.884-3.022.256-1.296 1.144-2.494 2.829-2.47C1720.079 1175.678 1720.972 1175.668 1721.92 1175.668zM1467.358 1129.042c.169 1.076.161 2.304-1.191 2.334-3.507.077-7.02-.069-10.529-.167-.296-.008-.583-.321-.931-.525.916-2.192 2.373-3.162 4.339-2.957 2.79.291 5.551.862 8.325 1.314C1467.371 1129.04 1467.358 1129.042 1467.358 1129.042zM1496.87 1098.965c2.331.197 4.701.272 7.024.643 1.302.208 2.643.73 3.736 1.458.526.35.52 1.501.755 2.29-.689.126-1.483.536-2.05.329-2.561-.937-5.028-1.852-7.899-1.497C1496.525 1102.424 1496.158 1101.45 1496.87 1098.965zM1662.405 1203.101c-4.955-2.551-7.872-6.476-9.539-11.612 1.533 1.2 3.139 2.32 4.581 3.621 1.667 1.504 3.212 3.148 4.768 4.77C1663.14 1200.845 1663.105 1200.879 1662.405 1203.101zM612.052 697.588c.864 2.223.643 3.589-1.3 4.342-2.463.954-5.106.014-7.083-2.649C606.121 696.931 609.089 697.632 612.052 697.588zM614.669 685.736c3.464-.953 6.327-.508 8.989 1.172.41.259.679 1.245.528 1.748-.153.508-.852 1.05-1.414 1.202C620.334 690.519 616.701 688.791 614.669 685.736zM1454.911 1011.329c3.795-.36 6.348 1.458 6.575 4.718.053.755-.362 1.943-.922 2.23-.583.299-1.822.006-2.389-.478C1456.222 1016.131 1455.445 1013.799 1454.911 1011.329zM1048.635 893.99c-1.244 1.846-1.852 3.433-3.003 4.273-1.281.934-3.029 1.322-4.635 1.664-.555.118-1.292-.615-1.945-.959.446-.823.704-2.117 1.372-2.385C1042.888 895.596 1045.489 894.947 1048.635 893.99zM576.837 687.913c-2.847 2.695-7.607 3.073-10.487 1.009C568.757 686.422 573.746 685.86 576.837 687.913zM1451.401 1134.114c.99-.32 2.042-1.023 2.957-.875 1.639.264 3.246.932 4.771 1.636 1.245.576 1.439 1.858.846 2.938-.643 1.172-1.68.719-2.669.208-1.09-.563-2.273-.944-3.392-1.457-.877-.402-1.717-.884-2.573-1.33C1451.361 1134.86 1451.381 1134.487 1451.401 1134.114zM619.637 693.332c-4.298 2.584-7.716 2.229-9.529-.811C612.885 690.21 616 690.422 619.637 693.332zM1494.266 1101.265c.059 3.309-.359 3.752-3.325 3.492-.676-.059-1.34-.256-2.011-.383-1.139-.216-2.41-.371-2.04-2.02.308-1.371 1.57-2.025 3.103-1.775C1491.331 1100.797 1492.671 1101.009 1494.266 1101.265z"/><path fill="#333349" d="M1469.453 1025.759c-.863 1.025-1.727 2.051-2.637 3.133-3.393-2.055-1.716-4.857-2.094-7.343 2.238-.366 3.401 1.258 4.974 1.91-.131.911-.239 1.657-.34 2.396C1469.362 1025.847 1469.453 1025.759 1469.453 1025.759zM585.786 692.52c1.109.368 1.863.573 2.581.867 1.205.494 1.789 1.469 1.472 2.706-.352 1.372-1.547 1.504-2.73 1.33-.662-.097-1.31-.34-1.945-.569-1.282-.462-2.351-1.414-1.831-2.719C583.644 693.351 585.018 692.991 585.786 692.52zM937.82 855.87c.76 2.643.348 4.834-1.026 6.896-2.001-.861-3.131-2.451-3.047-4.215C933.822 857.004 934.277 856.686 937.82 855.87zM1620.404 1111.795c2.123 2.505 5.099 4.22 6.094 7.444-1.157 1.216-2.277.99-3.069.066C1621.587 1117.159 1620.283 1114.724 1620.404 1111.795zM1728.22 1169.878c.722.413 1.694.646 1.896 1.174.205.536-.145 1.743-.608 1.991-1.327.709-2.81 1.192-4.287 1.51-.387.083-1.244-.679-1.39-1.194-.139-.49.198-1.432.625-1.703C1725.57 1170.95 1726.847 1170.502 1728.22 1169.878zM583.723 984.864c.855 0 .973-.021 1.08.003 1.24.283 2.989-.246 3.298 1.579.083.492-.884 1.424-1.562 1.732-1.999.91-3.972.665-4.607-.505-.276-.509-.387-1.567-.088-1.835C582.513 985.238 583.487 984.975 583.723 984.864zM660.252 1358.364c2.08-2.42 2.111-2.423 6.245-.372-.856.79-1.587 1.608-2.456 2.238-2.363 1.712-3.304 1.191-3.707-1.966L660.252 1358.364zM1603.506 1099.054c1.416.478 3.013.69 4.204 1.499 1.659 1.127 3.167 2.574 4.451 4.123 1.078 1.3 1.162 2.985.338 4.694-.482-2.339-1.243-4.377-3.383-5.71-1.958-1.219-3.751-2.703-5.617-4.07C1603.502 1099.411 1603.504 1099.232 1603.506 1099.054zM1487.425 1097.334c-2.17-.843-3.875-1.544-5.609-2.164-.925-.33-2.094-.313-1.954-1.706 2.656 0 5.233 0 8.067 0C1487.746 1094.871 1487.579 1096.153 1487.425 1097.334zM1646.116 1132.292c.43 1.668.759 2.946 1.094 4.244-1.503.953-2.979.842-3.849-.207-.57-.687-.715-2.331-.267-3.075C1643.485 1132.605 1644.971 1132.614 1646.116 1132.292zM1000.588 894.528c3.83.614 7.19 1.153 10.804 1.732-2.161 1.361-7.008 1.29-10.099-.054C1000.991 896.075 1000.931 895.385 1000.588 894.528zM1671.386 1162.261c.35 1.533.562 3.115 1.089 4.584.51 1.422 1.344 2.729 1.853 4.168C1670.677 1168.554 1669.871 1166.402 1671.386 1162.261zM536.088 950.117c2.293 1.73 2.032 3.715 1.61 6.019C534.486 954.137 534.125 952.683 536.088 950.117z"/><path fill="#333349" d="M660.335 1358.264c-.806.613-1.592 1.255-2.428 1.823-.354.241-.813.326-1.198.471-1.286-1.854-1.463-3.288-.377-3.737.782-.323 1.836-.415 2.622-.159.556.182.865 1.119 1.291 1.71C660.252 1358.364 660.335 1358.264 660.335 1358.264zM1523.544 1119.94c.236-2.574-.077-4.752 2.084-6.245C1527.458 1116.76 1527.161 1117.808 1523.544 1119.94zM1496.635 1088.059c-1.398 1.428-2.71 1.665-4.043.462-.746-.673-.562-1.067 1.205-3.26C1495.242 1085.495 1495.942 1086.55 1496.635 1088.059zM1473.917 1018.784c0 0-.033.014-.033.013-.483 2.482-2.134.592-3.178.95-.739-1.563-1.431-3.026-2.39-5.054C1470.951 1015.74 1471.238 1018.952 1473.917 1018.784zM909.783 870.61c.676.846 1.545 1.513 1.433 1.885-.213.705-.88 1.52-1.554 1.779-.898.345-2.212-.927-1.855-1.718C908.113 871.881 908.916 871.43 909.783 870.61zM1647.714 1128.479c.829 2.008 1.658 4.016 2.692 6.517C1648.062 1133.364 1647.145 1131.314 1647.714 1128.479zM1643.196 1128.74c-1.941-1.276-3.883-2.552-5.824-3.828 2.954-.338 4.578 1.498 6.4 3.006C1643.58 1128.193 1643.388 1128.467 1643.196 1128.74zM1676.823 1169.68c-.067-1.569-2.015-3.356.549-4.814C1678.79 1166.572 1677.715 1168.117 1676.823 1169.68zM1652.688 1142.144c-1.24-.888-2.191-1.569-3.544-2.538C1652.628 1139.147 1652.628 1139.147 1652.688 1142.144zM1496.561 1072.754c.849-1.211 1.423-2.029 2.23-3.182C1499.224 1072.936 1499.102 1073.122 1496.561 1072.754zM1632.841 1126.687c1.222.854 2.444 1.708 3.667 2.562-2.04.51-2.859-.997-4.167-1.672C1632.507 1127.28 1632.674 1126.983 1632.841 1126.687zM1628.979 1119.381c1.016.612 2.032 1.224 3.048 1.836-1.776.877-2.505-.327-3.529-.915C1628.659 1119.994 1628.819 1119.688 1628.979 1119.381zM1536.059 1093.951c-1.209-.122-2.418-.244-4.395-.443C1534.076 1092.473 1534.077 1092.464 1536.059 1093.951zM1496.383 1092.741c-1.776.813-2.205-.07-2.736-1.169C1494.902 1090.973 1495.527 1091.556 1496.383 1092.741zM1506.19 1093.426c-.438.43-.876.859-1.315 1.289-.177-.137-.354-.275-.53-.412.147-.337.239-.717.459-.996.176-.222.509-.319.772-.472C1505.781 1093.032 1505.986 1093.229 1506.19 1093.426zM1676.59 1177.97c-.149.507-.289 1.017-.471 1.511-.01.027-.533-.082-.531-.111.032-.549.108-1.096.174-1.643C1676.037 1177.808 1676.314 1177.889 1676.59 1177.97zM1477.37 1127.777c.602.074 1.205.147 1.807.221-.028.206-.055.413-.083.62-.604-.062-1.208-.123-1.811-.185C1477.312 1128.214 1477.341 1127.995 1477.37 1127.777zM1471.535 1128.631c1.31 0 1.934 0 2.558 0 .035.181.071.361.106.542-.43.149-.859.406-1.289.409C1472.629 1129.583 1472.346 1129.215 1471.535 1128.631zM1677.014 1174.596c-.35-.523-.699-1.046-1.049-1.569.19-.123.381-.246.571-.37.337.531.673 1.063 1.01 1.594C1677.369 1174.366 1677.191 1174.481 1677.014 1174.596zM1467.371 1129.04c1.107-.171 1.744.061 2.64 1.415-1.253-.668-1.951-1.041-2.652-1.414C1467.358 1129.042 1467.371 1129.04 1467.371 1129.04zM1506.898 758.196c-1.172-.941-1.751-1.406-2.501-2.008C1506.083 755.939 1506.083 755.939 1506.898 758.196zM542.931 861.955c-.735 0-1.47 0-2.204 0 .006-.14.012-.28.019-.42.733.052 1.466.105 2.2.157C542.94 861.78 542.935 861.868 542.931 861.955z"/></svg>